solid Person
  facet normal 0 0 -1
    outer loop
      vertex 0.188646 0.0176222 0
      vertex 0.190511 -0.00161297 0
      vertex -0.00925514 -0.0112756 0
    endloop
  endfacet
  facet normal 0 0 -1
    outer loop
      vertex 0.190511 -0.00161297 0
      vertex 0.190745 -0.0112756 0
      vertex -0.00925514 -0.0112756 0
    endloop
  endfacet
  facet normal 0 0 -1
    outer loop
      vertex -0.00925514 -0.0112756 0
      vertex 0.190745 -0.0112756 0
      vertex 0.190511 -0.0209383 0
    endloop
  endfacet
  facet normal 0 0 -1
    outer loop
      vertex 0.17212 0.0730046 0
      vertex 0.179407 0.0551059 0
      vertex -0.00925514 -0.0112756 0
    endloop
  endfacet
  facet normal 0 0 -1
    outer loop
      vertex 0.179407 0.0551059 0
      vertex 0.184933 0.0365875 0
      vertex -0.00925514 -0.0112756 0
    endloop
  endfacet
  facet normal 0 0 -1
    outer loop
      vertex -0.00925514 -0.0112756 0
      vertex 0.184933 0.0365875 0
      vertex 0.188646 0.0176222 0
    endloop
  endfacet
  facet normal 0 0 -1
    outer loop
      vertex 0.140447 0.121349 0
      vertex 0.152548 0.106281 0
      vertex -0.00925514 -0.0112756 0
    endloop
  endfacet
  facet normal 0 0 -1
    outer loop
      vertex 0.152548 0.106281 0
      vertex 0.163139 0.0901163 0
      vertex -0.00925514 -0.0112756 0
    endloop
  endfacet
  facet normal 0 0 -1
    outer loop
      vertex -0.00925514 -0.0112756 0
      vertex 0.163139 0.0901163 0
      vertex 0.17212 0.0730046 0
    endloop
  endfacet
  facet normal 0 0 -1
    outer loop
      vertex 0.0962729 0.158618 0
      vertex 0.112177 0.14764 0
      vertex -0.00925514 -0.0112756 0
    endloop
  endfacet
  facet normal 0 0 -1
    outer loop
      vertex 0.112177 0.14764 0
      vertex 0.126948 0.135178 0
      vertex -0.00925514 -0.0112756 0
    endloop
  endfacet
  facet normal 0 0 -1
    outer loop
      vertex -0.00925514 -0.0112756 0
      vertex 0.126948 0.135178 0
      vertex 0.140447 0.121349 0
    endloop
  endfacet
  facet normal 0 0 -1
    outer loop
      vertex 0.0432863 0.181699 0
      vertex 0.0616658 0.175728 0
      vertex -0.00925514 -0.0112756 0
    endloop
  endfacet
  facet normal 0 0 -1
    outer loop
      vertex 0.0616658 0.175728 0
      vertex 0.0793832 0.16801 0
      vertex -0.00925514 -0.0112756 0
    endloop
  endfacet
  facet normal 0 0 -1
    outer loop
      vertex -0.00925514 -0.0112756 0
      vertex 0.0793832 0.16801 0
      vertex 0.0962729 0.158618 0
    endloop
  endfacet
  facet normal 0 0 -1
    outer loop
      vertex -0.0140879 0.188666 0
      vertex 0.00523182 0.188199 0
      vertex -0.00925514 -0.0112756 0
    endloop
  endfacet
  facet normal 0 0 -1
    outer loop
      vertex 0.00523182 0.188199 0
      vertex 0.0244163 0.18587 0
      vertex -0.00925514 -0.0112756 0
    endloop
  endfacet
  facet normal 0 0 -1
    outer loop
      vertex -0.00925514 -0.0112756 0
      vertex 0.0244163 0.18587 0
      vertex 0.0432863 0.181699 0
    endloop
  endfacet
  facet normal 0 0 -1
    outer loop
      vertex -0.0710585 0.178936 0
      vertex -0.052412 0.184013 0
      vertex -0.00925514 -0.0112756 0
    endloop
  endfacet
  facet normal 0 0 -1
    outer loop
      vertex -0.052412 0.184013 0
      vertex -0.0333625 0.187266 0
      vertex -0.00925514 -0.0112756 0
    endloop
  endfacet
  facet normal 0 0 -1
    outer loop
      vertex -0.00925514 -0.0112756 0
      vertex -0.0333625 0.187266 0
      vertex -0.0140879 0.188666 0
    endloop
  endfacet
  facet normal 0 0 -1
    outer loop
      vertex -0.122868 0.153321 0
      vertex -0.106452 0.163518 0
      vertex -0.00925514 -0.0112756 0
    endloop
  endfacet
  facet normal 0 0 -1
    outer loop
      vertex -0.106452 0.163518 0
      vertex -0.0891281 0.172083 0
      vertex -0.00925514 -0.0112756 0
    endloop
  endfacet
  facet normal 0 0 -1
    outer loop
      vertex -0.00925514 -0.0112756 0
      vertex -0.0891281 0.172083 0
      vertex -0.0710585 0.178936 0
    endloop
  endfacet
  facet normal 0 0 -1
    outer loop
      vertex -0.16519 0.113961 0
      vertex -0.152375 0.128427 0
      vertex -0.00925514 -0.0112756 0
    endloop
  endfacet
  facet normal 0 0 -1
    outer loop
      vertex -0.152375 0.128427 0
      vertex -0.138224 0.141587 0
      vertex -0.00925514 -0.0112756 0
    endloop
  endfacet
  facet normal 0 0 -1
    outer loop
      vertex -0.00925514 -0.0112756 0
      vertex -0.138224 0.141587 0
      vertex -0.122868 0.153321 0
    endloop
  endfacet
  facet normal 0 0 -1
    outer loop
      vertex -0.19449 0.0641433 0
      vertex -0.186346 0.081669 0
      vertex -0.00925514 -0.0112756 0
    endloop
  endfacet
  facet normal 0 0 -1
    outer loop
      vertex -0.186346 0.081669 0
      vertex -0.176549 0.0983269 0
      vertex -0.00925514 -0.0112756 0
    endloop
  endfacet
  facet normal 0 0 -1
    outer loop
      vertex -0.00925514 -0.0112756 0
      vertex -0.176549 0.0983269 0
      vertex -0.16519 0.113961 0
    endloop
  endfacet
  facet normal 0 0 -1
    outer loop
      vertex -0.208321 0.00802714 0
      vertex -0.205529 0.0271497 0
      vertex -0.00925514 -0.0112756 0
    endloop
  endfacet
  facet normal 0 0 -1
    outer loop
      vertex -0.205529 0.0271497 0
      vertex -0.200904 0.0459135 0
      vertex -0.00925514 -0.0112756 0
    endloop
  endfacet
  facet normal 0 0 -1
    outer loop
      vertex -0.00925514 -0.0112756 0
      vertex -0.200904 0.0459135 0
      vertex -0.19449 0.0641433 0
    endloop
  endfacet
  facet normal 0 0 -1
    outer loop
      vertex -0.205529 -0.049701 0
      vertex -0.208321 -0.0305784 0
      vertex -0.00925514 -0.0112756 0
    endloop
  endfacet
  facet normal 0 0 -1
    outer loop
      vertex -0.208321 -0.0305784 0
      vertex -0.209255 -0.0112756 0
      vertex -0.00925514 -0.0112756 0
    endloop
  endfacet
  facet normal 0 0 -1
    outer loop
      vertex -0.00925514 -0.0112756 0
      vertex -0.209255 -0.0112756 0
      vertex -0.208321 0.00802714 0
    endloop
  endfacet
  facet normal 0 0 -1
    outer loop
      vertex -0.186346 -0.10422 0
      vertex -0.19449 -0.0866946 0
      vertex -0.00925514 -0.0112756 0
    endloop
  endfacet
  facet normal 0 0 -1
    outer loop
      vertex -0.19449 -0.0866946 0
      vertex -0.200904 -0.0684648 0
      vertex -0.00925514 -0.0112756 0
    endloop
  endfacet
  facet normal 0 0 -1
    outer loop
      vertex -0.00925514 -0.0112756 0
      vertex -0.200904 -0.0684648 0
      vertex -0.205529 -0.049701 0
    endloop
  endfacet
  facet normal 0 0 -1
    outer loop
      vertex -0.152375 -0.150978 0
      vertex -0.16519 -0.136513 0
      vertex -0.00925514 -0.0112756 0
    endloop
  endfacet
  facet normal 0 0 -1
    outer loop
      vertex -0.16519 -0.136513 0
      vertex -0.176549 -0.120878 0
      vertex -0.00925514 -0.0112756 0
    endloop
  endfacet
  facet normal 0 0 -1
    outer loop
      vertex -0.00925514 -0.0112756 0
      vertex -0.176549 -0.120878 0
      vertex -0.186346 -0.10422 0
    endloop
  endfacet
  facet normal 0 0 -1
    outer loop
      vertex -0.106452 -0.186069 0
      vertex -0.122868 -0.175872 0
      vertex -0.00925514 -0.0112756 0
    endloop
  endfacet
  facet normal 0 0 -1
    outer loop
      vertex -0.122868 -0.175872 0
      vertex -0.138224 -0.164139 0
      vertex -0.00925514 -0.0112756 0
    endloop
  endfacet
  facet normal 0 0 -1
    outer loop
      vertex -0.00925514 -0.0112756 0
      vertex -0.138224 -0.164139 0
      vertex -0.152375 -0.150978 0
    endloop
  endfacet
  facet normal 0 0 -1
    outer loop
      vertex -0.052412 -0.206564 0
      vertex -0.0710585 -0.201487 0
      vertex -0.00925514 -0.0112756 0
    endloop
  endfacet
  facet normal 0 0 -1
    outer loop
      vertex -0.0710585 -0.201487 0
      vertex -0.0891281 -0.194634 0
      vertex -0.00925514 -0.0112756 0
    endloop
  endfacet
  facet normal 0 0 -1
    outer loop
      vertex -0.00925514 -0.0112756 0
      vertex -0.0891281 -0.194634 0
      vertex -0.106452 -0.186069 0
    endloop
  endfacet
  facet normal 0 0 -1
    outer loop
      vertex 0.00523182 -0.21075 0
      vertex -0.0140879 -0.211217 0
      vertex -0.00925514 -0.0112756 0
    endloop
  endfacet
  facet normal 0 0 -1
    outer loop
      vertex -0.0140879 -0.211217 0
      vertex -0.0333625 -0.209817 0
      vertex -0.00925514 -0.0112756 0
    endloop
  endfacet
  facet normal 0 0 -1
    outer loop
      vertex -0.00925514 -0.0112756 0
      vertex -0.0333625 -0.209817 0
      vertex -0.052412 -0.206564 0
    endloop
  endfacet
  facet normal 0 0 -1
    outer loop
      vertex 0.0616658 -0.198279 0
      vertex 0.0432863 -0.204251 0
      vertex -0.00925514 -0.0112756 0
    endloop
  endfacet
  facet normal 0 0 -1
    outer loop
      vertex 0.0432863 -0.204251 0
      vertex 0.0244163 -0.208421 0
      vertex -0.00925514 -0.0112756 0
    endloop
  endfacet
  facet normal 0 0 -1
    outer loop
      vertex -0.00925514 -0.0112756 0
      vertex 0.0244163 -0.208421 0
      vertex 0.00523182 -0.21075 0
    endloop
  endfacet
  facet normal 0 0 -1
    outer loop
      vertex 0.112177 -0.170191 0
      vertex 0.0962729 -0.181169 0
      vertex -0.00925514 -0.0112756 0
    endloop
  endfacet
  facet normal 0 0 -1
    outer loop
      vertex 0.0962729 -0.181169 0
      vertex 0.0793832 -0.190561 0
      vertex -0.00925514 -0.0112756 0
    endloop
  endfacet
  facet normal 0 0 -1
    outer loop
      vertex -0.00925514 -0.0112756 0
      vertex 0.0793832 -0.190561 0
      vertex 0.0616658 -0.198279 0
    endloop
  endfacet
  facet normal 0 0 -1
    outer loop
      vertex 0.152548 -0.128833 0
      vertex 0.140447 -0.1439 0
      vertex -0.00925514 -0.0112756 0
    endloop
  endfacet
  facet normal 0 0 -1
    outer loop
      vertex 0.140447 -0.1439 0
      vertex 0.126948 -0.157729 0
      vertex -0.00925514 -0.0112756 0
    endloop
  endfacet
  facet normal 0 0 -1
    outer loop
      vertex -0.00925514 -0.0112756 0
      vertex 0.126948 -0.157729 0
      vertex 0.112177 -0.170191 0
    endloop
  endfacet
  facet normal 0 0 -1
    outer loop
      vertex 0.179407 -0.0776572 0
      vertex 0.17212 -0.0955559 0
      vertex -0.00925514 -0.0112756 0
    endloop
  endfacet
  facet normal 0 0 -1
    outer loop
      vertex 0.17212 -0.0955559 0
      vertex 0.163139 -0.112668 0
      vertex -0.00925514 -0.0112756 0
    endloop
  endfacet
  facet normal 0 0 -1
    outer loop
      vertex -0.00925514 -0.0112756 0
      vertex 0.163139 -0.112668 0
      vertex 0.152548 -0.128833 0
    endloop
  endfacet
  facet normal 0 0 -1
    outer loop
      vertex 0.190511 -0.0209383 0
      vertex 0.188646 -0.0401735 0
      vertex -0.00925514 -0.0112756 0
    endloop
  endfacet
  facet normal 0 0 -1
    outer loop
      vertex 0.188646 -0.0401735 0
      vertex 0.184933 -0.0591388 0
      vertex -0.00925514 -0.0112756 0
    endloop
  endfacet
  facet normal 0 0 -1
    outer loop
      vertex -0.00925514 -0.0112756 0
      vertex 0.184933 -0.0591388 0
      vertex 0.179407 -0.0776572 0
    endloop
  endfacet
  facet normal 0 0 1
    outer loop
      vertex 0.188646 -0.0401735 1.6
      vertex 0.190511 -0.0209383 1.6
      vertex -0.00925514 -0.0112756 1.6
    endloop
  endfacet
  facet normal 0 0 1
    outer loop
      vertex 0.190511 -0.0209383 1.6
      vertex 0.190745 -0.0112756 1.6
      vertex -0.00925514 -0.0112756 1.6
    endloop
  endfacet
  facet normal 0 0 1
    outer loop
      vertex -0.00925514 -0.0112756 1.6
      vertex 0.190745 -0.0112756 1.6
      vertex 0.190511 -0.00161297 1.6
    endloop
  endfacet
  facet normal 0 0 1
    outer loop
      vertex 0.17212 -0.0955559 1.6
      vertex 0.179407 -0.0776572 1.6
      vertex -0.00925514 -0.0112756 1.6
    endloop
  endfacet
  facet normal 0 0 1
    outer loop
      vertex 0.179407 -0.0776572 1.6
      vertex 0.184933 -0.0591388 1.6
      vertex -0.00925514 -0.0112756 1.6
    endloop
  endfacet
  facet normal 0 0 1
    outer loop
      vertex -0.00925514 -0.0112756 1.6
      vertex 0.184933 -0.0591388 1.6
      vertex 0.188646 -0.0401735 1.6
    endloop
  endfacet
  facet normal 0 0 1
    outer loop
      vertex 0.140447 -0.1439 1.6
      vertex 0.152548 -0.128833 1.6
      vertex -0.00925514 -0.0112756 1.6
    endloop
  endfacet
  facet normal 0 0 1
    outer loop
      vertex 0.152548 -0.128833 1.6
      vertex 0.163139 -0.112668 1.6
      vertex -0.00925514 -0.0112756 1.6
    endloop
  endfacet
  facet normal 0 0 1
    outer loop
      vertex -0.00925514 -0.0112756 1.6
      vertex 0.163139 -0.112668 1.6
      vertex 0.17212 -0.0955559 1.6
    endloop
  endfacet
  facet normal 0 0 1
    outer loop
      vertex 0.0962729 -0.181169 1.6
      vertex 0.112177 -0.170191 1.6
      vertex -0.00925514 -0.0112756 1.6
    endloop
  endfacet
  facet normal 0 0 1
    outer loop
      vertex 0.112177 -0.170191 1.6
      vertex 0.126948 -0.157729 1.6
      vertex -0.00925514 -0.0112756 1.6
    endloop
  endfacet
  facet normal 0 0 1
    outer loop
      vertex -0.00925514 -0.0112756 1.6
      vertex 0.126948 -0.157729 1.6
      vertex 0.140447 -0.1439 1.6
    endloop
  endfacet
  facet normal 0 0 1
    outer loop
      vertex 0.0432863 -0.204251 1.6
      vertex 0.0616658 -0.198279 1.6
      vertex -0.00925514 -0.0112756 1.6
    endloop
  endfacet
  facet normal 0 0 1
    outer loop
      vertex 0.0616658 -0.198279 1.6
      vertex 0.0793832 -0.190561 1.6
      vertex -0.00925514 -0.0112756 1.6
    endloop
  endfacet
  facet normal 0 0 1
    outer loop
      vertex -0.00925514 -0.0112756 1.6
      vertex 0.0793832 -0.190561 1.6
      vertex 0.0962729 -0.181169 1.6
    endloop
  endfacet
  facet normal 0 0 1
    outer loop
      vertex -0.0140879 -0.211217 1.6
      vertex 0.00523182 -0.21075 1.6
      vertex -0.00925514 -0.0112756 1.6
    endloop
  endfacet
  facet normal 0 0 1
    outer loop
      vertex 0.00523182 -0.21075 1.6
      vertex 0.0244163 -0.208421 1.6
      vertex -0.00925514 -0.0112756 1.6
    endloop
  endfacet
  facet normal 0 0 1
    outer loop
      vertex -0.00925514 -0.0112756 1.6
      vertex 0.0244163 -0.208421 1.6
      vertex 0.0432863 -0.204251 1.6
    endloop
  endfacet
  facet normal 0 0 1
    outer loop
      vertex -0.0710585 -0.201487 1.6
      vertex -0.052412 -0.206564 1.6
      vertex -0.00925514 -0.0112756 1.6
    endloop
  endfacet
  facet normal 0 0 1
    outer loop
      vertex -0.052412 -0.206564 1.6
      vertex -0.0333625 -0.209817 1.6
      vertex -0.00925514 -0.0112756 1.6
    endloop
  endfacet
  facet normal 0 0 1
    outer loop
      vertex -0.00925514 -0.0112756 1.6
      vertex -0.0333625 -0.209817 1.6
      vertex -0.0140879 -0.211217 1.6
    endloop
  endfacet
  facet normal 0 0 1
    outer loop
      vertex -0.122868 -0.175872 1.6
      vertex -0.106452 -0.186069 1.6
      vertex -0.00925514 -0.0112756 1.6
    endloop
  endfacet
  facet normal 0 0 1
    outer loop
      vertex -0.106452 -0.186069 1.6
      vertex -0.0891281 -0.194634 1.6
      vertex -0.00925514 -0.0112756 1.6
    endloop
  endfacet
  facet normal 0 0 1
    outer loop
      vertex -0.00925514 -0.0112756 1.6
      vertex -0.0891281 -0.194634 1.6
      vertex -0.0710585 -0.201487 1.6
    endloop
  endfacet
  facet normal 0 0 1
    outer loop
      vertex -0.16519 -0.136513 1.6
      vertex -0.152375 -0.150978 1.6
      vertex -0.00925514 -0.0112756 1.6
    endloop
  endfacet
  facet normal 0 0 1
    outer loop
      vertex -0.152375 -0.150978 1.6
      vertex -0.138224 -0.164139 1.6
      vertex -0.00925514 -0.0112756 1.6
    endloop
  endfacet
  facet normal 0 0 1
    outer loop
      vertex -0.00925514 -0.0112756 1.6
      vertex -0.138224 -0.164139 1.6
      vertex -0.122868 -0.175872 1.6
    endloop
  endfacet
  facet normal 0 0 1
    outer loop
      vertex -0.19449 -0.0866946 1.6
      vertex -0.186346 -0.10422 1.6
      vertex -0.00925514 -0.0112756 1.6
    endloop
  endfacet
  facet normal 0 0 1
    outer loop
      vertex -0.186346 -0.10422 1.6
      vertex -0.176549 -0.120878 1.6
      vertex -0.00925514 -0.0112756 1.6
    endloop
  endfacet
  facet normal 0 0 1
    outer loop
      vertex -0.00925514 -0.0112756 1.6
      vertex -0.176549 -0.120878 1.6
      vertex -0.16519 -0.136513 1.6
    endloop
  endfacet
  facet normal 0 0 1
    outer loop
      vertex -0.208321 -0.0305784 1.6
      vertex -0.205529 -0.049701 1.6
      vertex -0.00925514 -0.0112756 1.6
    endloop
  endfacet
  facet normal 0 0 1
    outer loop
      vertex -0.205529 -0.049701 1.6
      vertex -0.200904 -0.0684648 1.6
      vertex -0.00925514 -0.0112756 1.6
    endloop
  endfacet
  facet normal 0 0 1
    outer loop
      vertex -0.00925514 -0.0112756 1.6
      vertex -0.200904 -0.0684648 1.6
      vertex -0.19449 -0.0866946 1.6
    endloop
  endfacet
  facet normal 0 0 1
    outer loop
      vertex -0.205529 0.0271497 1.6
      vertex -0.208321 0.00802714 1.6
      vertex -0.00925514 -0.0112756 1.6
    endloop
  endfacet
  facet normal 0 0 1
    outer loop
      vertex -0.208321 0.00802714 1.6
      vertex -0.209255 -0.0112756 1.6
      vertex -0.00925514 -0.0112756 1.6
    endloop
  endfacet
  facet normal 0 0 1
    outer loop
      vertex -0.00925514 -0.0112756 1.6
      vertex -0.209255 -0.0112756 1.6
      vertex -0.208321 -0.0305784 1.6
    endloop
  endfacet
  facet normal 0 0 1
    outer loop
      vertex -0.186346 0.081669 1.6
      vertex -0.19449 0.0641433 1.6
      vertex -0.00925514 -0.0112756 1.6
    endloop
  endfacet
  facet normal 0 0 1
    outer loop
      vertex -0.19449 0.0641433 1.6
      vertex -0.200904 0.0459135 1.6
      vertex -0.00925514 -0.0112756 1.6
    endloop
  endfacet
  facet normal 0 0 1
    outer loop
      vertex -0.00925514 -0.0112756 1.6
      vertex -0.200904 0.0459135 1.6
      vertex -0.205529 0.0271497 1.6
    endloop
  endfacet
  facet normal 0 0 1
    outer loop
      vertex -0.152375 0.128427 1.6
      vertex -0.16519 0.113961 1.6
      vertex -0.00925514 -0.0112756 1.6
    endloop
  endfacet
  facet normal 0 0 1
    outer loop
      vertex -0.16519 0.113961 1.6
      vertex -0.176549 0.0983269 1.6
      vertex -0.00925514 -0.0112756 1.6
    endloop
  endfacet
  facet normal 0 0 1
    outer loop
      vertex -0.00925514 -0.0112756 1.6
      vertex -0.176549 0.0983269 1.6
      vertex -0.186346 0.081669 1.6
    endloop
  endfacet
  facet normal 0 0 1
    outer loop
      vertex -0.106452 0.163518 1.6
      vertex -0.122868 0.153321 1.6
      vertex -0.00925514 -0.0112756 1.6
    endloop
  endfacet
  facet normal 0 0 1
    outer loop
      vertex -0.122868 0.153321 1.6
      vertex -0.138224 0.141587 1.6
      vertex -0.00925514 -0.0112756 1.6
    endloop
  endfacet
  facet normal 0 0 1
    outer loop
      vertex -0.00925514 -0.0112756 1.6
      vertex -0.138224 0.141587 1.6
      vertex -0.152375 0.128427 1.6
    endloop
  endfacet
  facet normal 0 0 1
    outer loop
      vertex -0.052412 0.184013 1.6
      vertex -0.0710585 0.178936 1.6
      vertex -0.00925514 -0.0112756 1.6
    endloop
  endfacet
  facet normal 0 0 1
    outer loop
      vertex -0.0710585 0.178936 1.6
      vertex -0.0891281 0.172083 1.6
      vertex -0.00925514 -0.0112756 1.6
    endloop
  endfacet
  facet normal 0 0 1
    outer loop
      vertex -0.00925514 -0.0112756 1.6
      vertex -0.0891281 0.172083 1.6
      vertex -0.106452 0.163518 1.6
    endloop
  endfacet
  facet normal 0 0 1
    outer loop
      vertex 0.00523182 0.188199 1.6
      vertex -0.0140879 0.188666 1.6
      vertex -0.00925514 -0.0112756 1.6
    endloop
  endfacet
  facet normal 0 0 1
    outer loop
      vertex -0.0140879 0.188666 1.6
      vertex -0.0333625 0.187266 1.6
      vertex -0.00925514 -0.0112756 1.6
    endloop
  endfacet
  facet normal 0 0 1
    outer loop
      vertex -0.00925514 -0.0112756 1.6
      vertex -0.0333625 0.187266 1.6
      vertex -0.052412 0.184013 1.6
    endloop
  endfacet
  facet normal 0 0 1
    outer loop
      vertex 0.0616658 0.175728 1.6
      vertex 0.0432863 0.181699 1.6
      vertex -0.00925514 -0.0112756 1.6
    endloop
  endfacet
  facet normal 0 0 1
    outer loop
      vertex 0.0432863 0.181699 1.6
      vertex 0.0244163 0.18587 1.6
      vertex -0.00925514 -0.0112756 1.6
    endloop
  endfacet
  facet normal 0 0 1
    outer loop
      vertex -0.00925514 -0.0112756 1.6
      vertex 0.0244163 0.18587 1.6
      vertex 0.00523182 0.188199 1.6
    endloop
  endfacet
  facet normal 0 0 1
    outer loop
      vertex 0.112177 0.14764 1.6
      vertex 0.0962729 0.158618 1.6
      vertex -0.00925514 -0.0112756 1.6
    endloop
  endfacet
  facet normal 0 0 1
    outer loop
      vertex 0.0962729 0.158618 1.6
      vertex 0.0793832 0.16801 1.6
      vertex -0.00925514 -0.0112756 1.6
    endloop
  endfacet
  facet normal 0 0 1
    outer loop
      vertex -0.00925514 -0.0112756 1.6
      vertex 0.0793832 0.16801 1.6
      vertex 0.0616658 0.175728 1.6
    endloop
  endfacet
  facet normal 0 0 1
    outer loop
      vertex 0.152548 0.106281 1.6
      vertex 0.140447 0.121349 1.6
      vertex -0.00925514 -0.0112756 1.6
    endloop
  endfacet
  facet normal 0 0 1
    outer loop
      vertex 0.140447 0.121349 1.6
      vertex 0.126948 0.135178 1.6
      vertex -0.00925514 -0.0112756 1.6
    endloop
  endfacet
  facet normal 0 0 1
    outer loop
      vertex -0.00925514 -0.0112756 1.6
      vertex 0.126948 0.135178 1.6
      vertex 0.112177 0.14764 1.6
    endloop
  endfacet
  facet normal 0 0 1
    outer loop
      vertex 0.179407 0.0551059 1.6
      vertex 0.17212 0.0730046 1.6
      vertex -0.00925514 -0.0112756 1.6
    endloop
  endfacet
  facet normal 0 0 1
    outer loop
      vertex 0.17212 0.0730046 1.6
      vertex 0.163139 0.0901163 1.6
      vertex -0.00925514 -0.0112756 1.6
    endloop
  endfacet
  facet normal 0 0 1
    outer loop
      vertex -0.00925514 -0.0112756 1.6
      vertex 0.163139 0.0901163 1.6
      vertex 0.152548 0.106281 1.6
    endloop
  endfacet
  facet normal 0 0 1
    outer loop
      vertex 0.190511 -0.00161297 1.6
      vertex 0.188646 0.0176222 1.6
      vertex -0.00925514 -0.0112756 1.6
    endloop
  endfacet
  facet normal 0 0 1
    outer loop
      vertex 0.188646 0.0176222 1.6
      vertex 0.184933 0.0365875 1.6
      vertex -0.00925514 -0.0112756 1.6
    endloop
  endfacet
  facet normal 0 0 1
    outer loop
      vertex -0.00925514 -0.0112756 1.6
      vertex 0.184933 0.0365875 1.6
      vertex 0.179407 0.0551059 1.6
    endloop
  endfacet
  facet normal 0.999708 0.0241644 0
    outer loop
      vertex 0.190511 -0.00161297 1.6
      vertex 0.190745 -0.0112756 1.6
      vertex 0.190745 -0.0112756 0
    endloop
  endfacet
  facet normal 0.999708 -0.0241644 0
    outer loop
      vertex 0.190745 -0.0112756 0
      vertex 0.190745 -0.0112756 1.6
      vertex 0.190511 -0.0209383 0
    endloop
  endfacet
  facet normal 0.999708 -0.0241644 0
    outer loop
      vertex 0.190745 -0.0112756 1.6
      vertex 0.190511 -0.0209383 1.6
      vertex 0.190511 -0.0209383 0
    endloop
  endfacet
  facet normal 0.995332 -0.0965138 0
    outer loop
      vertex 0.190511 -0.0209383 1.6
      vertex 0.188646 -0.0401735 1.6
      vertex 0.190511 -0.0209383 0
    endloop
  endfacet
  facet normal 0.995332 -0.0965138 0
    outer loop
      vertex 0.190511 -0.0209383 0
      vertex 0.188646 -0.0401735 1.6
      vertex 0.188646 -0.0401735 0
    endloop
  endfacet
  facet normal 0.98137 -0.192127 0
    outer loop
      vertex 0.188646 -0.0401735 1.6
      vertex 0.184933 -0.0591388 1.6
      vertex 0.188646 -0.0401735 0
    endloop
  endfacet
  facet normal 0.98137 -0.192127 0
    outer loop
      vertex 0.188646 -0.0401735 0
      vertex 0.184933 -0.0591388 1.6
      vertex 0.184933 -0.0591388 0
    endloop
  endfacet
  facet normal 0.958246 -0.285945 0
    outer loop
      vertex 0.184933 -0.0591388 1.6
      vertex 0.179407 -0.0776572 1.6
      vertex 0.184933 -0.0591388 0
    endloop
  endfacet
  facet normal 0.958246 -0.285945 0
    outer loop
      vertex 0.184933 -0.0591388 0
      vertex 0.179407 -0.0776572 1.6
      vertex 0.179407 -0.0776572 0
    endloop
  endfacet
  facet normal 0.926175 -0.377095 0
    outer loop
      vertex 0.179407 -0.0776572 1.6
      vertex 0.17212 -0.0955559 1.6
      vertex 0.179407 -0.0776572 0
    endloop
  endfacet
  facet normal 0.926175 -0.377095 0
    outer loop
      vertex 0.179407 -0.0776572 0
      vertex 0.17212 -0.0955559 1.6
      vertex 0.17212 -0.0955559 0
    endloop
  endfacet
  facet normal 0.885456 -0.464723 0
    outer loop
      vertex 0.17212 -0.0955559 1.6
      vertex 0.163139 -0.112668 1.6
      vertex 0.17212 -0.0955559 0
    endloop
  endfacet
  facet normal 0.885456 -0.464723 0
    outer loop
      vertex 0.17212 -0.0955559 0
      vertex 0.163139 -0.112668 1.6
      vertex 0.163139 -0.112668 0
    endloop
  endfacet
  facet normal 0.83647 -0.548013 0
    outer loop
      vertex 0.163139 -0.112668 1.6
      vertex 0.152548 -0.128833 1.6
      vertex 0.163139 -0.112668 0
    endloop
  endfacet
  facet normal 0.83647 -0.548013 0
    outer loop
      vertex 0.163139 -0.112668 0
      vertex 0.152548 -0.128833 1.6
      vertex 0.152548 -0.128833 0
    endloop
  endfacet
  facet normal 0.779675 -0.626185 0
    outer loop
      vertex 0.152548 -0.128833 1.6
      vertex 0.140447 -0.1439 1.6
      vertex 0.152548 -0.128833 0
    endloop
  endfacet
  facet normal 0.779675 -0.626185 0
    outer loop
      vertex 0.152548 -0.128833 0
      vertex 0.140447 -0.1439 1.6
      vertex 0.140447 -0.1439 0
    endloop
  endfacet
  facet normal 0.715599 -0.698511 0
    outer loop
      vertex 0.140447 -0.1439 1.6
      vertex 0.126948 -0.157729 1.6
      vertex 0.140447 -0.1439 0
    endloop
  endfacet
  facet normal 0.715599 -0.698511 0
    outer loop
      vertex 0.140447 -0.1439 0
      vertex 0.126948 -0.157729 1.6
      vertex 0.126948 -0.157729 0
    endloop
  endfacet
  facet normal 0.644842 -0.764316 0
    outer loop
      vertex 0.126948 -0.157729 1.6
      vertex 0.112177 -0.170191 1.6
      vertex 0.126948 -0.157729 0
    endloop
  endfacet
  facet normal 0.644842 -0.764316 0
    outer loop
      vertex 0.126948 -0.157729 0
      vertex 0.112177 -0.170191 1.6
      vertex 0.112177 -0.170191 0
    endloop
  endfacet
  facet normal 0.568065 -0.822984 0
    outer loop
      vertex 0.112177 -0.170191 1.6
      vertex 0.0962729 -0.181169 1.6
      vertex 0.112177 -0.170191 0
    endloop
  endfacet
  facet normal 0.568065 -0.822984 0
    outer loop
      vertex 0.112177 -0.170191 0
      vertex 0.0962729 -0.181169 1.6
      vertex 0.0962729 -0.181169 0
    endloop
  endfacet
  facet normal 0.485983 -0.873968 0
    outer loop
      vertex 0.0962729 -0.181169 1.6
      vertex 0.0793832 -0.190561 1.6
      vertex 0.0962729 -0.181169 0
    endloop
  endfacet
  facet normal 0.485983 -0.873968 0
    outer loop
      vertex 0.0962729 -0.181169 0
      vertex 0.0793832 -0.190561 1.6
      vertex 0.0793832 -0.190561 0
    endloop
  endfacet
  facet normal 0.399365 -0.916792 0
    outer loop
      vertex 0.0793832 -0.190561 1.6
      vertex 0.0616658 -0.198279 1.6
      vertex 0.0793832 -0.190561 0
    endloop
  endfacet
  facet normal 0.399365 -0.916792 0
    outer loop
      vertex 0.0793832 -0.190561 0
      vertex 0.0616658 -0.198279 1.6
      vertex 0.0616658 -0.198279 0
    endloop
  endfacet
  facet normal 0.309016 -0.951057 0
    outer loop
      vertex 0.0616658 -0.198279 1.6
      vertex 0.0432863 -0.204251 1.6
      vertex 0.0616658 -0.198279 0
    endloop
  endfacet
  facet normal 0.309016 -0.951057 0
    outer loop
      vertex 0.0616658 -0.198279 0
      vertex 0.0432863 -0.204251 1.6
      vertex 0.0432863 -0.204251 0
    endloop
  endfacet
  facet normal 0.215785 -0.976441 0
    outer loop
      vertex 0.0432863 -0.204251 1.6
      vertex 0.0244163 -0.208421 1.6
      vertex 0.0432863 -0.204251 0
    endloop
  endfacet
  facet normal 0.215785 -0.976441 0
    outer loop
      vertex 0.0432863 -0.204251 0
      vertex 0.0244163 -0.208421 1.6
      vertex 0.0244163 -0.208421 0
    endloop
  endfacet
  facet normal 0.120536 -0.992709 0
    outer loop
      vertex 0.0244163 -0.208421 1.6
      vertex 0.00523182 -0.21075 1.6
      vertex 0.0244163 -0.208421 0
    endloop
  endfacet
  facet normal 0.120536 -0.992709 0
    outer loop
      vertex 0.0244163 -0.208421 0
      vertex 0.00523182 -0.21075 1.6
      vertex 0.00523182 -0.21075 0
    endloop
  endfacet
  facet normal 0.0241637 -0.999708 0
    outer loop
      vertex 0.00523182 -0.21075 1.6
      vertex -0.0140879 -0.211217 1.6
      vertex 0.00523182 -0.21075 0
    endloop
  endfacet
  facet normal 0.0241637 -0.999708 0
    outer loop
      vertex 0.00523182 -0.21075 0
      vertex -0.0140879 -0.211217 1.6
      vertex -0.0140879 -0.211217 0
    endloop
  endfacet
  facet normal -0.0724349 -0.997373 0
    outer loop
      vertex -0.0140879 -0.211217 1.6
      vertex -0.0333625 -0.209817 1.6
      vertex -0.0140879 -0.211217 0
    endloop
  endfacet
  facet normal -0.0724349 -0.997373 0
    outer loop
      vertex -0.0140879 -0.211217 0
      vertex -0.0333625 -0.209817 1.6
      vertex -0.0333625 -0.209817 0
    endloop
  endfacet
  facet normal -0.168357 -0.985726 0
    outer loop
      vertex -0.0333625 -0.209817 1.6
      vertex -0.052412 -0.206564 1.6
      vertex -0.0333625 -0.209817 0
    endloop
  endfacet
  facet normal -0.168357 -0.985726 0
    outer loop
      vertex -0.0333625 -0.209817 0
      vertex -0.052412 -0.206564 1.6
      vertex -0.052412 -0.206564 0
    endloop
  endfacet
  facet normal -0.262707 -0.964876 0
    outer loop
      vertex -0.052412 -0.206564 1.6
      vertex -0.0710585 -0.201487 1.6
      vertex -0.052412 -0.206564 0
    endloop
  endfacet
  facet normal -0.262707 -0.964876 0
    outer loop
      vertex -0.052412 -0.206564 0
      vertex -0.0710585 -0.201487 1.6
      vertex -0.0710585 -0.201487 0
    endloop
  endfacet
  facet normal -0.354604 -0.935016 0
    outer loop
      vertex -0.0710585 -0.201487 1.6
      vertex -0.0891281 -0.194634 1.6
      vertex -0.0710585 -0.201487 0
    endloop
  endfacet
  facet normal -0.354604 -0.935016 0
    outer loop
      vertex -0.0710585 -0.201487 0
      vertex -0.0891281 -0.194634 1.6
      vertex -0.0891281 -0.194634 0
    endloop
  endfacet
  facet normal -0.443192 -0.896427 0
    outer loop
      vertex -0.0891281 -0.194634 1.6
      vertex -0.106452 -0.186069 1.6
      vertex -0.0891281 -0.194634 0
    endloop
  endfacet
  facet normal -0.443192 -0.896427 0
    outer loop
      vertex -0.0891281 -0.194634 0
      vertex -0.106452 -0.186069 1.6
      vertex -0.106452 -0.186069 0
    endloop
  endfacet
  facet normal -0.52764 -0.849468 0
    outer loop
      vertex -0.106452 -0.186069 1.6
      vertex -0.122868 -0.175872 1.6
      vertex -0.106452 -0.186069 0
    endloop
  endfacet
  facet normal -0.52764 -0.849468 0
    outer loop
      vertex -0.106452 -0.186069 0
      vertex -0.122868 -0.175872 1.6
      vertex -0.122868 -0.175872 0
    endloop
  endfacet
  facet normal -0.607162 -0.794578 0
    outer loop
      vertex -0.122868 -0.175872 1.6
      vertex -0.138224 -0.164139 1.6
      vertex -0.122868 -0.175872 0
    endloop
  endfacet
  facet normal -0.607162 -0.794578 0
    outer loop
      vertex -0.122868 -0.175872 0
      vertex -0.138224 -0.164139 1.6
      vertex -0.138224 -0.164139 0
    endloop
  endfacet
  facet normal -0.681016 -0.732269 0
    outer loop
      vertex -0.138224 -0.164139 1.6
      vertex -0.152375 -0.150978 1.6
      vertex -0.138224 -0.164139 0
    endloop
  endfacet
  facet normal -0.681016 -0.732269 0
    outer loop
      vertex -0.138224 -0.164139 0
      vertex -0.152375 -0.150978 1.6
      vertex -0.152375 -0.150978 0
    endloop
  endfacet
  facet normal -0.748511 -0.663122 0
    outer loop
      vertex -0.152375 -0.150978 1.6
      vertex -0.16519 -0.136513 1.6
      vertex -0.152375 -0.150978 0
    endloop
  endfacet
  facet normal -0.748511 -0.663122 0
    outer loop
      vertex -0.152375 -0.150978 0
      vertex -0.16519 -0.136513 1.6
      vertex -0.16519 -0.136513 0
    endloop
  endfacet
  facet normal -0.809017 -0.587785 0
    outer loop
      vertex -0.16519 -0.136513 1.6
      vertex -0.176549 -0.120878 1.6
      vertex -0.16519 -0.136513 0
    endloop
  endfacet
  facet normal -0.809017 -0.587785 0
    outer loop
      vertex -0.16519 -0.136513 0
      vertex -0.176549 -0.120878 1.6
      vertex -0.176549 -0.120878 0
    endloop
  endfacet
  facet normal -0.861969 -0.50696 0
    outer loop
      vertex -0.176549 -0.120878 1.6
      vertex -0.186346 -0.10422 1.6
      vertex -0.176549 -0.120878 0
    endloop
  endfacet
  facet normal -0.861969 -0.50696 0
    outer loop
      vertex -0.176549 -0.120878 0
      vertex -0.186346 -0.10422 1.6
      vertex -0.186346 -0.10422 0
    endloop
  endfacet
  facet normal -0.906874 -0.421401 0
    outer loop
      vertex -0.186346 -0.10422 1.6
      vertex -0.19449 -0.0866946 1.6
      vertex -0.186346 -0.10422 0
    endloop
  endfacet
  facet normal -0.906874 -0.421401 0
    outer loop
      vertex -0.186346 -0.10422 0
      vertex -0.19449 -0.0866946 1.6
      vertex -0.19449 -0.0866946 0
    endloop
  endfacet
  facet normal -0.943312 -0.331908 0
    outer loop
      vertex -0.19449 -0.0866946 1.6
      vertex -0.200904 -0.0684648 1.6
      vertex -0.19449 -0.0866946 0
    endloop
  endfacet
  facet normal -0.943312 -0.331908 0
    outer loop
      vertex -0.19449 -0.0866946 0
      vertex -0.200904 -0.0684648 1.6
      vertex -0.200904 -0.0684648 0
    endloop
  endfacet
  facet normal -0.970942 -0.239316 0
    outer loop
      vertex -0.200904 -0.0684648 1.6
      vertex -0.205529 -0.049701 1.6
      vertex -0.200904 -0.0684648 0
    endloop
  endfacet
  facet normal -0.970942 -0.239316 0
    outer loop
      vertex -0.200904 -0.0684648 0
      vertex -0.205529 -0.049701 1.6
      vertex -0.205529 -0.049701 0
    endloop
  endfacet
  facet normal -0.989506 -0.144489 0
    outer loop
      vertex -0.205529 -0.049701 1.6
      vertex -0.208321 -0.0305784 1.6
      vertex -0.205529 -0.049701 0
    endloop
  endfacet
  facet normal -0.989506 -0.144489 0
    outer loop
      vertex -0.205529 -0.049701 0
      vertex -0.208321 -0.0305784 1.6
      vertex -0.208321 -0.0305784 0
    endloop
  endfacet
  facet normal -0.998832 -0.0483136 0
    outer loop
      vertex -0.208321 -0.0305784 1.6
      vertex -0.209255 -0.0112756 1.6
      vertex -0.208321 -0.0305784 0
    endloop
  endfacet
  facet normal -0.998832 -0.0483136 0
    outer loop
      vertex -0.208321 -0.0305784 0
      vertex -0.209255 -0.0112756 1.6
      vertex -0.209255 -0.0112756 0
    endloop
  endfacet
  facet normal -0.998832 0.0483136 0
    outer loop
      vertex -0.209255 -0.0112756 1.6
      vertex -0.208321 0.00802714 1.6
      vertex -0.209255 -0.0112756 0
    endloop
  endfacet
  facet normal -0.998832 0.0483136 0
    outer loop
      vertex -0.209255 -0.0112756 0
      vertex -0.208321 0.00802714 1.6
      vertex -0.208321 0.00802714 0
    endloop
  endfacet
  facet normal -0.989506 0.144489 0
    outer loop
      vertex -0.208321 0.00802714 1.6
      vertex -0.205529 0.0271497 1.6
      vertex -0.208321 0.00802714 0
    endloop
  endfacet
  facet normal -0.989506 0.144489 0
    outer loop
      vertex -0.208321 0.00802714 0
      vertex -0.205529 0.0271497 1.6
      vertex -0.205529 0.0271497 0
    endloop
  endfacet
  facet normal -0.970942 0.239316 0
    outer loop
      vertex -0.205529 0.0271497 1.6
      vertex -0.200904 0.0459135 1.6
      vertex -0.205529 0.0271497 0
    endloop
  endfacet
  facet normal -0.970942 0.239316 0
    outer loop
      vertex -0.205529 0.0271497 0
      vertex -0.200904 0.0459135 1.6
      vertex -0.200904 0.0459135 0
    endloop
  endfacet
  facet normal -0.943312 0.331908 0
    outer loop
      vertex -0.200904 0.0459135 1.6
      vertex -0.19449 0.0641433 1.6
      vertex -0.200904 0.0459135 0
    endloop
  endfacet
  facet normal -0.943312 0.331908 0
    outer loop
      vertex -0.200904 0.0459135 0
      vertex -0.19449 0.0641433 1.6
      vertex -0.19449 0.0641433 0
    endloop
  endfacet
  facet normal -0.906874 0.421401 0
    outer loop
      vertex -0.19449 0.0641433 1.6
      vertex -0.186346 0.081669 1.6
      vertex -0.19449 0.0641433 0
    endloop
  endfacet
  facet normal -0.906874 0.421401 0
    outer loop
      vertex -0.19449 0.0641433 0
      vertex -0.186346 0.081669 1.6
      vertex -0.186346 0.081669 0
    endloop
  endfacet
  facet normal -0.861969 0.50696 0
    outer loop
      vertex -0.186346 0.081669 1.6
      vertex -0.176549 0.0983269 1.6
      vertex -0.186346 0.081669 0
    endloop
  endfacet
  facet normal -0.861969 0.50696 0
    outer loop
      vertex -0.186346 0.081669 0
      vertex -0.176549 0.0983269 1.6
      vertex -0.176549 0.0983269 0
    endloop
  endfacet
  facet normal -0.809017 0.587785 0
    outer loop
      vertex -0.176549 0.0983269 1.6
      vertex -0.16519 0.113961 1.6
      vertex -0.176549 0.0983269 0
    endloop
  endfacet
  facet normal -0.809017 0.587785 0
    outer loop
      vertex -0.176549 0.0983269 0
      vertex -0.16519 0.113961 1.6
      vertex -0.16519 0.113961 0
    endloop
  endfacet
  facet normal -0.748511 0.663122 0
    outer loop
      vertex -0.16519 0.113961 1.6
      vertex -0.152375 0.128427 1.6
      vertex -0.16519 0.113961 0
    endloop
  endfacet
  facet normal -0.748511 0.663122 0
    outer loop
      vertex -0.16519 0.113961 0
      vertex -0.152375 0.128427 1.6
      vertex -0.152375 0.128427 0
    endloop
  endfacet
  facet normal -0.681016 0.732269 0
    outer loop
      vertex -0.152375 0.128427 1.6
      vertex -0.138224 0.141587 1.6
      vertex -0.152375 0.128427 0
    endloop
  endfacet
  facet normal -0.681016 0.732269 0
    outer loop
      vertex -0.152375 0.128427 0
      vertex -0.138224 0.141587 1.6
      vertex -0.138224 0.141587 0
    endloop
  endfacet
  facet normal -0.607162 0.794578 0
    outer loop
      vertex -0.138224 0.141587 1.6
      vertex -0.122868 0.153321 1.6
      vertex -0.138224 0.141587 0
    endloop
  endfacet
  facet normal -0.607162 0.794578 0
    outer loop
      vertex -0.138224 0.141587 0
      vertex -0.122868 0.153321 1.6
      vertex -0.122868 0.153321 0
    endloop
  endfacet
  facet normal -0.52764 0.849468 0
    outer loop
      vertex -0.122868 0.153321 1.6
      vertex -0.106452 0.163518 1.6
      vertex -0.122868 0.153321 0
    endloop
  endfacet
  facet normal -0.52764 0.849468 0
    outer loop
      vertex -0.122868 0.153321 0
      vertex -0.106452 0.163518 1.6
      vertex -0.106452 0.163518 0
    endloop
  endfacet
  facet normal -0.443192 0.896427 0
    outer loop
      vertex -0.106452 0.163518 1.6
      vertex -0.0891281 0.172083 1.6
      vertex -0.106452 0.163518 0
    endloop
  endfacet
  facet normal -0.443192 0.896427 0
    outer loop
      vertex -0.106452 0.163518 0
      vertex -0.0891281 0.172083 1.6
      vertex -0.0891281 0.172083 0
    endloop
  endfacet
  facet normal -0.354604 0.935016 0
    outer loop
      vertex -0.0891281 0.172083 1.6
      vertex -0.0710585 0.178936 1.6
      vertex -0.0891281 0.172083 0
    endloop
  endfacet
  facet normal -0.354604 0.935016 0
    outer loop
      vertex -0.0891281 0.172083 0
      vertex -0.0710585 0.178936 1.6
      vertex -0.0710585 0.178936 0
    endloop
  endfacet
  facet normal -0.262707 0.964876 0
    outer loop
      vertex -0.0710585 0.178936 1.6
      vertex -0.052412 0.184013 1.6
      vertex -0.0710585 0.178936 0
    endloop
  endfacet
  facet normal -0.262707 0.964876 0
    outer loop
      vertex -0.0710585 0.178936 0
      vertex -0.052412 0.184013 1.6
      vertex -0.052412 0.184013 0
    endloop
  endfacet
  facet normal -0.168357 0.985726 0
    outer loop
      vertex -0.052412 0.184013 1.6
      vertex -0.0333625 0.187266 1.6
      vertex -0.052412 0.184013 0
    endloop
  endfacet
  facet normal -0.168357 0.985726 0
    outer loop
      vertex -0.052412 0.184013 0
      vertex -0.0333625 0.187266 1.6
      vertex -0.0333625 0.187266 0
    endloop
  endfacet
  facet normal -0.0724349 0.997373 0
    outer loop
      vertex -0.0333625 0.187266 1.6
      vertex -0.0140879 0.188666 1.6
      vertex -0.0333625 0.187266 0
    endloop
  endfacet
  facet normal -0.0724349 0.997373 0
    outer loop
      vertex -0.0333625 0.187266 0
      vertex -0.0140879 0.188666 1.6
      vertex -0.0140879 0.188666 0
    endloop
  endfacet
  facet normal 0.0241637 0.999708 0
    outer loop
      vertex -0.0140879 0.188666 1.6
      vertex 0.00523182 0.188199 1.6
      vertex -0.0140879 0.188666 0
    endloop
  endfacet
  facet normal 0.0241637 0.999708 0
    outer loop
      vertex -0.0140879 0.188666 0
      vertex 0.00523182 0.188199 1.6
      vertex 0.00523182 0.188199 0
    endloop
  endfacet
  facet normal 0.120536 0.992709 0
    outer loop
      vertex 0.00523182 0.188199 1.6
      vertex 0.0244163 0.18587 1.6
      vertex 0.00523182 0.188199 0
    endloop
  endfacet
  facet normal 0.120536 0.992709 0
    outer loop
      vertex 0.00523182 0.188199 0
      vertex 0.0244163 0.18587 1.6
      vertex 0.0244163 0.18587 0
    endloop
  endfacet
  facet normal 0.215785 0.976441 0
    outer loop
      vertex 0.0244163 0.18587 1.6
      vertex 0.0432863 0.181699 1.6
      vertex 0.0244163 0.18587 0
    endloop
  endfacet
  facet normal 0.215785 0.976441 0
    outer loop
      vertex 0.0244163 0.18587 0
      vertex 0.0432863 0.181699 1.6
      vertex 0.0432863 0.181699 0
    endloop
  endfacet
  facet normal 0.309016 0.951057 0
    outer loop
      vertex 0.0432863 0.181699 1.6
      vertex 0.0616658 0.175728 1.6
      vertex 0.0432863 0.181699 0
    endloop
  endfacet
  facet normal 0.309016 0.951057 0
    outer loop
      vertex 0.0432863 0.181699 0
      vertex 0.0616658 0.175728 1.6
      vertex 0.0616658 0.175728 0
    endloop
  endfacet
  facet normal 0.399365 0.916792 0
    outer loop
      vertex 0.0616658 0.175728 1.6
      vertex 0.0793832 0.16801 1.6
      vertex 0.0616658 0.175728 0
    endloop
  endfacet
  facet normal 0.399365 0.916792 0
    outer loop
      vertex 0.0616658 0.175728 0
      vertex 0.0793832 0.16801 1.6
      vertex 0.0793832 0.16801 0
    endloop
  endfacet
  facet normal 0.485983 0.873968 0
    outer loop
      vertex 0.0793832 0.16801 1.6
      vertex 0.0962729 0.158618 1.6
      vertex 0.0793832 0.16801 0
    endloop
  endfacet
  facet normal 0.485983 0.873968 0
    outer loop
      vertex 0.0793832 0.16801 0
      vertex 0.0962729 0.158618 1.6
      vertex 0.0962729 0.158618 0
    endloop
  endfacet
  facet normal 0.568065 0.822984 0
    outer loop
      vertex 0.0962729 0.158618 1.6
      vertex 0.112177 0.14764 1.6
      vertex 0.0962729 0.158618 0
    endloop
  endfacet
  facet normal 0.568065 0.822984 0
    outer loop
      vertex 0.0962729 0.158618 0
      vertex 0.112177 0.14764 1.6
      vertex 0.112177 0.14764 0
    endloop
  endfacet
  facet normal 0.644842 0.764316 0
    outer loop
      vertex 0.112177 0.14764 1.6
      vertex 0.126948 0.135178 1.6
      vertex 0.112177 0.14764 0
    endloop
  endfacet
  facet normal 0.644842 0.764316 0
    outer loop
      vertex 0.112177 0.14764 0
      vertex 0.126948 0.135178 1.6
      vertex 0.126948 0.135178 0
    endloop
  endfacet
  facet normal 0.715599 0.698511 0
    outer loop
      vertex 0.126948 0.135178 1.6
      vertex 0.140447 0.121349 1.6
      vertex 0.126948 0.135178 0
    endloop
  endfacet
  facet normal 0.715599 0.698511 0
    outer loop
      vertex 0.126948 0.135178 0
      vertex 0.140447 0.121349 1.6
      vertex 0.140447 0.121349 0
    endloop
  endfacet
  facet normal 0.779674 0.626185 0
    outer loop
      vertex 0.140447 0.121349 1.6
      vertex 0.152548 0.106281 1.6
      vertex 0.140447 0.121349 0
    endloop
  endfacet
  facet normal 0.779674 0.626185 0
    outer loop
      vertex 0.140447 0.121349 0
      vertex 0.152548 0.106281 1.6
      vertex 0.152548 0.106281 0
    endloop
  endfacet
  facet normal 0.83647 0.548013 0
    outer loop
      vertex 0.152548 0.106281 1.6
      vertex 0.163139 0.0901163 1.6
      vertex 0.152548 0.106281 0
    endloop
  endfacet
  facet normal 0.83647 0.548013 0
    outer loop
      vertex 0.152548 0.106281 0
      vertex 0.163139 0.0901163 1.6
      vertex 0.163139 0.0901163 0
    endloop
  endfacet
  facet normal 0.885456 0.464723 0
    outer loop
      vertex 0.163139 0.0901163 1.6
      vertex 0.17212 0.0730046 1.6
      vertex 0.163139 0.0901163 0
    endloop
  endfacet
  facet normal 0.885456 0.464723 0
    outer loop
      vertex 0.163139 0.0901163 0
      vertex 0.17212 0.0730046 1.6
      vertex 0.17212 0.0730046 0
    endloop
  endfacet
  facet normal 0.926175 0.377095 0
    outer loop
      vertex 0.17212 0.0730046 1.6
      vertex 0.179407 0.0551059 1.6
      vertex 0.17212 0.0730046 0
    endloop
  endfacet
  facet normal 0.926175 0.377095 0
    outer loop
      vertex 0.17212 0.0730046 0
      vertex 0.179407 0.0551059 1.6
      vertex 0.179407 0.0551059 0
    endloop
  endfacet
  facet normal 0.958246 0.285945 0
    outer loop
      vertex 0.179407 0.0551059 1.6
      vertex 0.184933 0.0365875 1.6
      vertex 0.179407 0.0551059 0
    endloop
  endfacet
  facet normal 0.958246 0.285945 0
    outer loop
      vertex 0.179407 0.0551059 0
      vertex 0.184933 0.0365875 1.6
      vertex 0.184933 0.0365875 0
    endloop
  endfacet
  facet normal 0.98137 0.192127 0
    outer loop
      vertex 0.184933 0.0365875 1.6
      vertex 0.188646 0.0176222 1.6
      vertex 0.184933 0.0365875 0
    endloop
  endfacet
  facet normal 0.98137 0.192127 0
    outer loop
      vertex 0.184933 0.0365875 0
      vertex 0.188646 0.0176222 1.6
      vertex 0.188646 0.0176222 0
    endloop
  endfacet
  facet normal 0.995332 0.0965138 0
    outer loop
      vertex 0.188646 0.0176222 1.6
      vertex 0.190511 -0.00161297 1.6
      vertex 0.188646 0.0176222 0
    endloop
  endfacet
  facet normal 0.995332 0.0965138 0
    outer loop
      vertex 0.188646 0.0176222 0
      vertex 0.190511 -0.00161297 1.6
      vertex 0.190511 -0.00161297 0
    endloop
  endfacet
  facet normal 0.999708 0.0241644 0
    outer loop
      vertex 0.190511 -0.00161297 1.6
      vertex 0.190745 -0.0112756 0
      vertex 0.190511 -0.00161297 0
    endloop
  endfacet
endsolid Person