solid Glass
  facet normal 0 1 0
    outer loop
      vertex -1.5 -2 3
      vertex 1.5 -2 3
      vertex -1.5 -2 0
    endloop
  endfacet
  facet normal 0 1 0
    outer loop
      vertex 1.5 -2 3
      vertex 1.5 -2 0
      vertex -1.5 -2 0
    endloop
  endfacet
  facet normal 0 -1 0
    outer loop
      vertex 1.5 -2.01 3
      vertex -1.5 -2.01 3
      vertex 1.5 -2.01 0
    endloop
  endfacet
  facet normal 0 -1 0
    outer loop
      vertex -1.5 -2.01 3
      vertex -1.5 -2.01 0
      vertex 1.5 -2.01 0
    endloop
  endfacet
  facet normal 0 0 -1
    outer loop
      vertex 1.5 -2.01 0
      vertex -1.5 -2.01 0
      vertex 1.5 -2 0
    endloop
  endfacet
  facet normal 0 0 -1
    outer loop
      vertex -1.5 -2.01 0
      vertex -1.5 -2 0
      vertex 1.5 -2 0
    endloop
  endfacet
  facet normal 1 0 0
    outer loop
      vertex 1.5 -2.01 3
      vertex 1.5 -2.01 0
      vertex 1.5 -2 3
    endloop
  endfacet
  facet normal 1 0 0
    outer loop
      vertex 1.5 -2.01 0
      vertex 1.5 -2 0
      vertex 1.5 -2 3
    endloop
  endfacet
  facet normal 0 0 1
    outer loop
      vertex -1.5 -2.01 3
      vertex 1.5 -2.01 3
      vertex -1.5 -2 3
    endloop
  endfacet
  facet normal 0 0 1
    outer loop
      vertex 1.5 -2.01 3
      vertex 1.5 -2 3
      vertex -1.5 -2 3
    endloop
  endfacet
  facet normal -1 0 0
    outer loop
      vertex -1.5 -2.01 0
      vertex -1.5 -2.01 3
      vertex -1.5 -2 0
    endloop
  endfacet
  facet normal -1 0 0
    outer loop
      vertex -1.5 -2.01 3
      vertex -1.5 -2 3
      vertex -1.5 -2 0
    endloop
  endfacet
endsolid Glass
solid Floor
  facet normal 0 0 -1
    outer loop
      vertex 1.5 2 0
      vertex 1.5 -2 0
      vertex -1.5 2 0
    endloop
  endfacet
  facet normal 0 0 -1
    outer loop
      vertex 1.5 -2 0
      vertex -1.5 -2 0
      vertex -1.5 2 0
    endloop
  endfacet
  facet normal 0 0 1
    outer loop
      vertex 1.5 -2 0.01
      vertex 1.5 2 0.01
      vertex -1.5 -2 0.01
    endloop
  endfacet
  facet normal 0 0 1
    outer loop
      vertex 1.5 2 0.01
      vertex -1.5 2 0.01
      vertex -1.5 -2 0.01
    endloop
  endfacet
  facet normal -1 0 0
    outer loop
      vertex -1.5 -2 0.01
      vertex -1.5 2 0.01
      vertex -1.5 -2 0
    endloop
  endfacet
  facet normal -1 0 0
    outer loop
      vertex -1.5 2 0.01
      vertex -1.5 2 0
      vertex -1.5 -2 0
    endloop
  endfacet
  facet normal 0 1 0
    outer loop
      vertex -1.5 2 0.01
      vertex 1.5 2 0.01
      vertex -1.5 2 0
    endloop
  endfacet
  facet normal 0 1 0
    outer loop
      vertex 1.5 2 0.01
      vertex 1.5 2 0
      vertex -1.5 2 0
    endloop
  endfacet
  facet normal 1 0 0
    outer loop
      vertex 1.5 2 0.01
      vertex 1.5 -2 0.01
      vertex 1.5 2 0
    endloop
  endfacet
  facet normal 1 0 0
    outer loop
      vertex 1.5 -2 0.01
      vertex 1.5 -2 0
      vertex 1.5 2 0
    endloop
  endfacet
  facet normal 0 -1 0
    outer loop
      vertex 1.5 -2 0.01
      vertex -1.5 -2 0.01
      vertex 1.5 -2 0
    endloop
  endfacet
  facet normal 0 -1 0
    outer loop
      vertex -1.5 -2 0.01
      vertex -1.5 -2 0
      vertex 1.5 -2 0
    endloop
  endfacet
endsolid Floor
solid SideRight
  facet normal 1 0 0
    outer loop
      vertex 1.5 2 3
      vertex 1.5 -2 3
      vertex 1.5 2 0
    endloop
  endfacet
  facet normal 1 0 0
    outer loop
      vertex 1.5 -2 3
      vertex 1.5 -2 0
      vertex 1.5 2 0
    endloop
  endfacet
  facet normal -1 0 0
    outer loop
      vertex 1.49 -2 3
      vertex 1.49 2 3
      vertex 1.49 -2 0
    endloop
  endfacet
  facet normal -1 0 0
    outer loop
      vertex 1.49 2 3
      vertex 1.49 2 0
      vertex 1.49 -2 0
    endloop
  endfacet
  facet normal 0 0 -1
    outer loop
      vertex 1.49 -2 0
      vertex 1.49 2 0
      vertex 1.5 -2 0
    endloop
  endfacet
  facet normal 0 0 -1
    outer loop
      vertex 1.49 2 0
      vertex 1.5 2 0
      vertex 1.5 -2 0
    endloop
  endfacet
  facet normal 0 1 0
    outer loop
      vertex 1.49 2 0
      vertex 1.49 2 3
      vertex 1.5 2 0
    endloop
  endfacet
  facet normal 0 1 0
    outer loop
      vertex 1.49 2 3
      vertex 1.5 2 3
      vertex 1.5 2 0
    endloop
  endfacet
  facet normal 0 0 1
    outer loop
      vertex 1.49 2 3
      vertex 1.49 -2 3
      vertex 1.5 2 3
    endloop
  endfacet
  facet normal 0 0 1
    outer loop
      vertex 1.49 -2 3
      vertex 1.5 -2 3
      vertex 1.5 2 3
    endloop
  endfacet
  facet normal 0 -1 0
    outer loop
      vertex 1.49 -2 3
      vertex 1.49 -2 0
      vertex 1.5 -2 3
    endloop
  endfacet
  facet normal 0 -1 0
    outer loop
      vertex 1.49 -2 0
      vertex 1.5 -2 0
      vertex 1.5 -2 3
    endloop
  endfacet
endsolid SideRight
solid SideLeft
  facet normal -1 0 0
    outer loop
      vertex -1.5 -2 3
      vertex -1.5 2 3
      vertex -1.5 -2 0
    endloop
  endfacet
  facet normal -1 0 0
    outer loop
      vertex -1.5 2 3
      vertex -1.5 2 0
      vertex -1.5 -2 0
    endloop
  endfacet
  facet normal 1 0 0
    outer loop
      vertex -1.49 2 3
      vertex -1.49 -2 3
      vertex -1.49 2 0
    endloop
  endfacet
  facet normal 1 0 0
    outer loop
      vertex -1.49 -2 3
      vertex -1.49 -2 0
      vertex -1.49 2 0
    endloop
  endfacet
  facet normal 0 0 -1
    outer loop
      vertex -1.49 2 0
      vertex -1.49 -2 0
      vertex -1.5 2 0
    endloop
  endfacet
  facet normal 0 0 -1
    outer loop
      vertex -1.49 -2 0
      vertex -1.5 -2 0
      vertex -1.5 2 0
    endloop
  endfacet
  facet normal 0 -1 0
    outer loop
      vertex -1.49 -2 0
      vertex -1.49 -2 3
      vertex -1.5 -2 0
    endloop
  endfacet
  facet normal 0 -1 0
    outer loop
      vertex -1.49 -2 3
      vertex -1.5 -2 3
      vertex -1.5 -2 0
    endloop
  endfacet
  facet normal 0 0 1
    outer loop
      vertex -1.49 -2 3
      vertex -1.49 2 3
      vertex -1.5 -2 3
    endloop
  endfacet
  facet normal 0 0 1
    outer loop
      vertex -1.49 2 3
      vertex -1.5 2 3
      vertex -1.5 -2 3
    endloop
  endfacet
  facet normal 0 1 0
    outer loop
      vertex -1.49 2 3
      vertex -1.49 2 0
      vertex -1.5 2 3
    endloop
  endfacet
  facet normal 0 1 0
    outer loop
      vertex -1.49 2 0
      vertex -1.5 2 0
      vertex -1.5 2 3
    endloop
  endfacet
endsolid SideLeft
solid SideBack
  facet normal 0 0 -1
    outer loop
      vertex 0.5 1.99 2.6
      vertex -0.5 1.99 2.6
      vertex 0.5 2 2.6
    endloop
  endfacet
  facet normal 0 0 -1
    outer loop
      vertex -0.5 1.99 2.6
      vertex -0.5 2 2.6
      vertex 0.5 2 2.6
    endloop
  endfacet
  facet normal 1 0 0
    outer loop
      vertex -0.5 1.99 2.6
      vertex -0.5 1.99 2.4
      vertex -0.5 2 2.6
    endloop
  endfacet
  facet normal 1 0 0
    outer loop
      vertex -0.5 1.99 2.4
      vertex -0.5 2 2.4
      vertex -0.5 2 2.6
    endloop
  endfacet
  facet normal 0 0 1
    outer loop
      vertex -0.5 1.99 2.4
      vertex 0.5 1.99 2.4
      vertex -0.5 2 2.4
    endloop
  endfacet
  facet normal 0 0 1
    outer loop
      vertex 0.5 1.99 2.4
      vertex 0.5 2 2.4
      vertex -0.5 2 2.4
    endloop
  endfacet
  facet normal -1 0 0
    outer loop
      vertex 0.5 1.99 2.4
      vertex 0.5 1.99 2.6
      vertex 0.5 2 2.4
    endloop
  endfacet
  facet normal -1 0 0
    outer loop
      vertex 0.5 1.99 2.6
      vertex 0.5 2 2.6
      vertex 0.5 2 2.4
    endloop
  endfacet
  facet normal 0 1 0
    outer loop
      vertex 0.5 2 2.4
      vertex 1.5 2 0
      vertex -0.5 2 2.4
    endloop
  endfacet
  facet normal 0 1 0
    outer loop
      vertex 1.5 2 0
      vertex -1.5 2 0
      vertex -0.5 2 2.4
    endloop
  endfacet
  facet normal 0 1 0
    outer loop
      vertex -0.5 2 2.4
      vertex -1.5 2 0
      vertex -0.5 2 2.6
    endloop
  endfacet
  facet normal 0 1 0
    outer loop
      vertex -1.5 2 0
      vertex -1.5 2 3
      vertex -0.5 2 2.6
    endloop
  endfacet
  facet normal 0 1 0
    outer loop
      vertex -0.5 2 2.6
      vertex -1.5 2 3
      vertex 0.5 2 2.6
    endloop
  endfacet
  facet normal 0 1 0
    outer loop
      vertex -1.5 2 3
      vertex 1.5 2 3
      vertex 0.5 2 2.6
    endloop
  endfacet
  facet normal 0 1 0
    outer loop
      vertex 0.5 2 2.6
      vertex 1.5 2 3
      vertex 0.5 2 2.4
    endloop
  endfacet
  facet normal 0 1 0
    outer loop
      vertex 1.5 2 3
      vertex 1.5 2 0
      vertex 0.5 2 2.4
    endloop
  endfacet
  facet normal 0 0 -1
    outer loop
      vertex 1.5 1.99 0
      vertex -1.5 1.99 0
      vertex 1.5 2 0
    endloop
  endfacet
  facet normal 0 0 -1
    outer loop
      vertex -1.5 1.99 0
      vertex -1.5 2 0
      vertex 1.5 2 0
    endloop
  endfacet
  facet normal 0 -1 0
    outer loop
      vertex -0.5 1.99 2.6
      vertex -1.5 1.99 3
      vertex -0.5 1.99 2.4
    endloop
  endfacet
  facet normal 0 -1 0
    outer loop
      vertex -1.5 1.99 3
      vertex -1.5 1.99 0
      vertex -0.5 1.99 2.4
    endloop
  endfacet
  facet normal 0 -1 0
    outer loop
      vertex -0.5 1.99 2.4
      vertex -1.5 1.99 0
      vertex 0.5 1.99 2.4
    endloop
  endfacet
  facet normal 0 -1 0
    outer loop
      vertex -1.5 1.99 0
      vertex 1.5 1.99 0
      vertex 0.5 1.99 2.4
    endloop
  endfacet
  facet normal 0 -1 0
    outer loop
      vertex 0.5 1.99 2.4
      vertex 1.5 1.99 0
      vertex 0.5 1.99 2.6
    endloop
  endfacet
  facet normal 0 -1 0
    outer loop
      vertex 1.5 1.99 0
      vertex 1.5 1.99 3
      vertex 0.5 1.99 2.6
    endloop
  endfacet
  facet normal 0 -1 0
    outer loop
      vertex 0.5 1.99 2.6
      vertex 1.5 1.99 3
      vertex -0.5 1.99 2.6
    endloop
  endfacet
  facet normal 0 -1 0
    outer loop
      vertex 1.5 1.99 3
      vertex -1.5 1.99 3
      vertex -0.5 1.99 2.6
    endloop
  endfacet
  facet normal -1 0 0
    outer loop
      vertex -1.5 1.99 0
      vertex -1.5 1.99 3
      vertex -1.5 2 0
    endloop
  endfacet
  facet normal -1 0 0
    outer loop
      vertex -1.5 1.99 3
      vertex -1.5 2 3
      vertex -1.5 2 0
    endloop
  endfacet
  facet normal 0 0 1
    outer loop
      vertex -1.5 1.99 3
      vertex 1.5 1.99 3
      vertex -1.5 2 3
    endloop
  endfacet
  facet normal 0 0 1
    outer loop
      vertex 1.5 1.99 3
      vertex 1.5 2 3
      vertex -1.5 2 3
    endloop
  endfacet
  facet normal 1 0 0
    outer loop
      vertex 1.5 1.99 3
      vertex 1.5 1.99 0
      vertex 1.5 2 3
    endloop
  endfacet
  facet normal 1 0 0
    outer loop
      vertex 1.5 1.99 0
      vertex 1.5 2 0
      vertex 1.5 2 3
    endloop
  endfacet
endsolid SideBack
solid Ceiling
  facet normal 1 0 0
    outer loop
      vertex -0.5 -1.8 2.99
      vertex -0.5 -1.55 2.99
      vertex -0.5 -1.8 3
    endloop
  endfacet
  facet normal 1 0 0
    outer loop
      vertex -0.5 -1.55 2.99
      vertex -0.5 -1.55 3
      vertex -0.5 -1.8 3
    endloop
  endfacet
  facet normal 0 -1 0
    outer loop
      vertex -0.5 -1.55 2.99
      vertex 0.5 -1.55 2.99
      vertex -0.5 -1.55 3
    endloop
  endfacet
  facet normal 0 -1 0
    outer loop
      vertex 0.5 -1.55 2.99
      vertex 0.5 -1.55 3
      vertex -0.5 -1.55 3
    endloop
  endfacet
  facet normal -1 0 0
    outer loop
      vertex 0.5 -1.8 2.99
      vertex 0.5 -1.8 3
      vertex 0.5 -1.55 2.99
    endloop
  endfacet
  facet normal -1 0 0
    outer loop
      vertex 0.5 -1.8 3
      vertex 0.5 -1.55 3
      vertex 0.5 -1.55 2.99
    endloop
  endfacet
  facet normal 0 1 0
    outer loop
      vertex 0.5 -1.8 2.99
      vertex -0.5 -1.8 2.99
      vertex 0.5 -1.8 3
    endloop
  endfacet
  facet normal 0 1 0
    outer loop
      vertex -0.5 -1.8 2.99
      vertex -0.5 -1.8 3
      vertex 0.5 -1.8 3
    endloop
  endfacet
  facet normal -1 0 0
    outer loop
      vertex -1.5 2 2.99
      vertex -1.5 -2 2.99
      vertex -1.5 2 3
    endloop
  endfacet
  facet normal -1 0 0
    outer loop
      vertex -1.5 -2 2.99
      vertex -1.5 -2 3
      vertex -1.5 2 3
    endloop
  endfacet
  facet normal 0 0 -1
    outer loop
      vertex 0.5 -1.55 2.99
      vertex 1.5 -2 2.99
      vertex 0.5 -1.8 2.99
    endloop
  endfacet
  facet normal 0 0 -1
    outer loop
      vertex 1.5 -2 2.99
      vertex -1.5 -2 2.99
      vertex 0.5 -1.8 2.99
    endloop
  endfacet
  facet normal 0 0 -1
    outer loop
      vertex 0.5 -1.8 2.99
      vertex -1.5 -2 2.99
      vertex -0.5 -1.8 2.99
    endloop
  endfacet
  facet normal 0 0 -1
    outer loop
      vertex -0.5 -1.8 2.99
      vertex -1.5 -2 2.99
      vertex -0.5 -1.55 2.99
    endloop
  endfacet
  facet normal 0 0 -1
    outer loop
      vertex -1.5 -2 2.99
      vertex -1.5 2 2.99
      vertex -0.5 -1.55 2.99
    endloop
  endfacet
  facet normal 0 0 -1
    outer loop
      vertex -0.5 -1.55 2.99
      vertex -1.5 2 2.99
      vertex 0.5 -1.55 2.99
    endloop
  endfacet
  facet normal 0 0 -1
    outer loop
      vertex -1.5 2 2.99
      vertex 1.5 2 2.99
      vertex 0.5 -1.55 2.99
    endloop
  endfacet
  facet normal 0 0 -1
    outer loop
      vertex 0.5 -1.55 2.99
      vertex 1.5 2 2.99
      vertex 1.5 -2 2.99
    endloop
  endfacet
  facet normal 0 -1 0
    outer loop
      vertex -1.5 -2 2.99
      vertex 1.5 -2 2.99
      vertex -1.5 -2 3
    endloop
  endfacet
  facet normal 0 -1 0
    outer loop
      vertex 1.5 -2 2.99
      vertex 1.5 -2 3
      vertex -1.5 -2 3
    endloop
  endfacet
  facet normal 1 0 0
    outer loop
      vertex 1.5 -2 2.99
      vertex 1.5 2 2.99
      vertex 1.5 -2 3
    endloop
  endfacet
  facet normal 1 0 0
    outer loop
      vertex 1.5 2 2.99
      vertex 1.5 2 3
      vertex 1.5 -2 3
    endloop
  endfacet
  facet normal 0 0 1
    outer loop
      vertex -1.5 -2 3
      vertex -0.5 -1.8 3
      vertex -0.5 -1.55 3
    endloop
  endfacet
  facet normal 0 0 1
    outer loop
      vertex -0.5 -1.8 3
      vertex -1.5 -2 3
      vertex 0.5 -1.8 3
    endloop
  endfacet
  facet normal 0 0 1
    outer loop
      vertex -1.5 -2 3
      vertex 1.5 -2 3
      vertex 0.5 -1.8 3
    endloop
  endfacet
  facet normal 0 0 1
    outer loop
      vertex 0.5 -1.8 3
      vertex 1.5 -2 3
      vertex 0.5 -1.55 3
    endloop
  endfacet
  facet normal 0 0 1
    outer loop
      vertex 1.5 -2 3
      vertex 1.5 2 3
      vertex 0.5 -1.55 3
    endloop
  endfacet
  facet normal 0 0 1
    outer loop
      vertex 0.5 -1.55 3
      vertex 1.5 2 3
      vertex -0.5 -1.55 3
    endloop
  endfacet
  facet normal 0 0 1
    outer loop
      vertex 1.5 2 3
      vertex -1.5 2 3
      vertex -0.5 -1.55 3
    endloop
  endfacet
  facet normal 0 0 1
    outer loop
      vertex -0.5 -1.55 3
      vertex -1.5 2 3
      vertex -1.5 -2 3
    endloop
  endfacet
  facet normal 0 1 0
    outer loop
      vertex 1.5 2 2.99
      vertex -1.5 2 2.99
      vertex 1.5 2 3
    endloop
  endfacet
  facet normal 0 1 0
    outer loop
      vertex -1.5 2 2.99
      vertex -1.5 2 3
      vertex 1.5 2 3
    endloop
  endfacet
endsolid Ceiling
solid Duct
  facet normal 0 1 0
    outer loop
      vertex -0.14 1.99 3.11
      vertex -0.15 1.99 3.1
      vertex -0.14 1.99 3.24
    endloop
  endfacet
  facet normal 0 1 0
    outer loop
      vertex -0.15 1.99 3.1
      vertex -0.15 1.99 3.25
      vertex -0.14 1.99 3.24
    endloop
  endfacet
  facet normal 0 1 0
    outer loop
      vertex -0.14 1.99 3.24
      vertex -0.15 1.99 3.25
      vertex 0.14 1.99 3.24
    endloop
  endfacet
  facet normal 0 1 0
    outer loop
      vertex -0.15 1.99 3.25
      vertex 0.15 1.99 3.25
      vertex 0.14 1.99 3.24
    endloop
  endfacet
  facet normal 0 1 0
    outer loop
      vertex 0.14 1.99 3.24
      vertex 0.15 1.99 3.25
      vertex 0.14 1.99 3.11
    endloop
  endfacet
  facet normal 0 1 0
    outer loop
      vertex 0.15 1.99 3.25
      vertex 0.15 1.99 3.1
      vertex 0.14 1.99 3.11
    endloop
  endfacet
  facet normal 0 1 0
    outer loop
      vertex 0.14 1.99 3.11
      vertex 0.15 1.99 3.1
      vertex -0.14 1.99 3.11
    endloop
  endfacet
  facet normal 0 1 0
    outer loop
      vertex 0.15 1.99 3.1
      vertex -0.15 1.99 3.1
      vertex -0.14 1.99 3.11
    endloop
  endfacet
  facet normal 0 0 -1
    outer loop
      vertex -0.49 -1.79 3.24
      vertex -0.49 -1.56 3.24
      vertex 0.49 -1.79 3.24
    endloop
  endfacet
  facet normal 0 0 -1
    outer loop
      vertex -0.49 -1.56 3.24
      vertex -0.14 -1.56 3.24
      vertex 0.49 -1.79 3.24
    endloop
  endfacet
  facet normal 0 0 -1
    outer loop
      vertex 0.49 -1.56 3.24
      vertex 0.49 -1.79 3.24
      vertex 0.14 -1.56 3.24
    endloop
  endfacet
  facet normal 0 0 -1
    outer loop
      vertex 0.49 -1.79 3.24
      vertex -0.14 -1.56 3.24
      vertex 0.14 -1.56 3.24
    endloop
  endfacet
  facet normal 0 0 -1
    outer loop
      vertex 0.14 -1.56 3.24
      vertex -0.14 -1.56 3.24
      vertex 0.14 1.99 3.24
    endloop
  endfacet
  facet normal 0 0 -1
    outer loop
      vertex -0.14 -1.56 3.24
      vertex -0.14 1.99 3.24
      vertex 0.14 1.99 3.24
    endloop
  endfacet
  facet normal 1 0 0
    outer loop
      vertex -0.14 1.99 3.24
      vertex -0.14 -1.56 3.24
      vertex -0.14 1.99 3.11
    endloop
  endfacet
  facet normal 1 0 0
    outer loop
      vertex -0.14 -1.56 3.24
      vertex -0.14 -1.56 3.11
      vertex -0.14 1.99 3.11
    endloop
  endfacet
  facet normal -1 0 0
    outer loop
      vertex 0.14 -1.56 3.24
      vertex 0.14 1.99 3.24
      vertex 0.14 -1.56 3.11
    endloop
  endfacet
  facet normal -1 0 0
    outer loop
      vertex 0.14 1.99 3.24
      vertex 0.14 1.99 3.11
      vertex 0.14 -1.56 3.11
    endloop
  endfacet
  facet normal 0 0 1
    outer loop
      vertex -0.14 1.99 3.11
      vertex -0.14 -1.56 3.11
      vertex 0.14 1.99 3.11
    endloop
  endfacet
  facet normal 0 0 1
    outer loop
      vertex -0.14 -1.56 3.11
      vertex 0.14 -1.56 3.11
      vertex 0.14 1.99 3.11
    endloop
  endfacet
  facet normal 1 0 0
    outer loop
      vertex 0.5 -1.55 2.99
      vertex 0.5 -1.55 3.25
      vertex 0.5 -1.8 2.99
    endloop
  endfacet
  facet normal 1 0 0
    outer loop
      vertex 0.5 -1.55 3.25
      vertex 0.5 -1.8 3.25
      vertex 0.5 -1.8 2.99
    endloop
  endfacet
  facet normal 0 -1 0
    outer loop
      vertex -0.14 -1.56 3.24
      vertex -0.49 -1.56 3.24
      vertex -0.14 -1.56 3.11
    endloop
  endfacet
  facet normal 0 -1 0
    outer loop
      vertex -0.49 -1.56 3.24
      vertex -0.49 -1.56 2.99
      vertex -0.14 -1.56 3.11
    endloop
  endfacet
  facet normal 0 -1 0
    outer loop
      vertex -0.14 -1.56 3.11
      vertex -0.49 -1.56 2.99
      vertex 0.14 -1.56 3.11
    endloop
  endfacet
  facet normal 0 -1 0
    outer loop
      vertex -0.49 -1.56 2.99
      vertex 0.49 -1.56 2.99
      vertex 0.14 -1.56 3.11
    endloop
  endfacet
  facet normal 0 -1 0
    outer loop
      vertex 0.14 -1.56 3.11
      vertex 0.49 -1.56 2.99
      vertex 0.14 -1.56 3.24
    endloop
  endfacet
  facet normal 0 -1 0
    outer loop
      vertex 0.49 -1.56 2.99
      vertex 0.49 -1.56 3.24
      vertex 0.14 -1.56 3.24
    endloop
  endfacet
  facet normal 0 -1 0
    outer loop
      vertex 0.5 -1.8 2.99
      vertex 0.5 -1.8 3.25
      vertex -0.5 -1.8 2.99
    endloop
  endfacet
  facet normal 0 -1 0
    outer loop
      vertex 0.5 -1.8 3.25
      vertex -0.5 -1.8 3.25
      vertex -0.5 -1.8 2.99
    endloop
  endfacet
  facet normal 1 0 0
    outer loop
      vertex -0.49 -1.79 3.24
      vertex -0.49 -1.79 2.99
      vertex -0.49 -1.56 3.24
    endloop
  endfacet
  facet normal 1 0 0
    outer loop
      vertex -0.49 -1.79 2.99
      vertex -0.49 -1.56 2.99
      vertex -0.49 -1.56 3.24
    endloop
  endfacet
  facet normal 0 1 0
    outer loop
      vertex 0.15 -1.55 3.1
      vertex 0.15 -1.55 3.25
      vertex 0.5 -1.55 3.25
    endloop
  endfacet
  facet normal 0 1 0
    outer loop
      vertex -0.5 -1.55 2.99
      vertex -0.5 -1.55 3.25
      vertex -0.15 -1.55 3.25
    endloop
  endfacet
  facet normal 0 1 0
    outer loop
      vertex -0.15 -1.55 3.25
      vertex -0.15 -1.55 3.1
      vertex -0.5 -1.55 2.99
    endloop
  endfacet
  facet normal 0 1 0
    outer loop
      vertex -0.15 -1.55 3.1
      vertex 0.15 -1.55 3.1
      vertex -0.5 -1.55 2.99
    endloop
  endfacet
  facet normal 0 1 0
    outer loop
      vertex -0.5 -1.55 2.99
      vertex 0.15 -1.55 3.1
      vertex 0.5 -1.55 2.99
    endloop
  endfacet
  facet normal 0 1 0
    outer loop
      vertex 0.15 -1.55 3.1
      vertex 0.5 -1.55 3.25
      vertex 0.5 -1.55 2.99
    endloop
  endfacet
  facet normal 0 1 0
    outer loop
      vertex 0.49 -1.79 3.24
      vertex 0.49 -1.79 2.99
      vertex -0.49 -1.79 3.24
    endloop
  endfacet
  facet normal 0 1 0
    outer loop
      vertex 0.49 -1.79 2.99
      vertex -0.49 -1.79 2.99
      vertex -0.49 -1.79 3.24
    endloop
  endfacet
  facet normal 0 0 -1
    outer loop
      vertex 0.49 -1.79 2.99
      vertex 0.5 -1.8 2.99
      vertex -0.49 -1.79 2.99
    endloop
  endfacet
  facet normal 0 0 -1
    outer loop
      vertex 0.5 -1.8 2.99
      vertex -0.5 -1.8 2.99
      vertex -0.49 -1.79 2.99
    endloop
  endfacet
  facet normal 0 0 -1
    outer loop
      vertex -0.49 -1.79 2.99
      vertex -0.5 -1.8 2.99
      vertex -0.49 -1.56 2.99
    endloop
  endfacet
  facet normal 0 0 -1
    outer loop
      vertex -0.5 -1.8 2.99
      vertex -0.5 -1.55 2.99
      vertex -0.49 -1.56 2.99
    endloop
  endfacet
  facet normal 0 0 -1
    outer loop
      vertex -0.49 -1.56 2.99
      vertex -0.5 -1.55 2.99
      vertex 0.49 -1.56 2.99
    endloop
  endfacet
  facet normal 0 0 -1
    outer loop
      vertex -0.5 -1.55 2.99
      vertex 0.5 -1.55 2.99
      vertex 0.49 -1.56 2.99
    endloop
  endfacet
  facet normal 0 0 -1
    outer loop
      vertex 0.49 -1.56 2.99
      vertex 0.5 -1.55 2.99
      vertex 0.49 -1.79 2.99
    endloop
  endfacet
  facet normal 0 0 -1
    outer loop
      vertex 0.5 -1.55 2.99
      vertex 0.5 -1.8 2.99
      vertex 0.49 -1.79 2.99
    endloop
  endfacet
  facet normal 0 0 1
    outer loop
      vertex 0.5 -1.8 3.25
      vertex 0.5 -1.55 3.25
      vertex -0.5 -1.8 3.25
    endloop
  endfacet
  facet normal 0 0 1
    outer loop
      vertex 0.5 -1.55 3.25
      vertex 0.15 -1.55 3.25
      vertex -0.5 -1.8 3.25
    endloop
  endfacet
  facet normal 0 0 1
    outer loop
      vertex -0.5 -1.55 3.25
      vertex -0.5 -1.8 3.25
      vertex -0.15 -1.55 3.25
    endloop
  endfacet
  facet normal 0 0 1
    outer loop
      vertex -0.5 -1.8 3.25
      vertex 0.15 -1.55 3.25
      vertex -0.15 -1.55 3.25
    endloop
  endfacet
  facet normal 0 0 1
    outer loop
      vertex -0.15 -1.55 3.25
      vertex 0.15 -1.55 3.25
      vertex -0.15 1.99 3.25
    endloop
  endfacet
  facet normal 0 0 1
    outer loop
      vertex 0.15 -1.55 3.25
      vertex 0.15 1.99 3.25
      vertex -0.15 1.99 3.25
    endloop
  endfacet
  facet normal 1 0 0
    outer loop
      vertex 0.15 -1.55 3.25
      vertex 0.15 -1.55 3.1
      vertex 0.15 1.99 3.25
    endloop
  endfacet
  facet normal 1 0 0
    outer loop
      vertex 0.15 -1.55 3.1
      vertex 0.15 1.99 3.1
      vertex 0.15 1.99 3.25
    endloop
  endfacet
  facet normal -1 0 0
    outer loop
      vertex -0.15 1.99 3.1
      vertex -0.15 -1.55 3.1
      vertex -0.15 1.99 3.25
    endloop
  endfacet
  facet normal -1 0 0
    outer loop
      vertex -0.15 -1.55 3.1
      vertex -0.15 -1.55 3.25
      vertex -0.15 1.99 3.25
    endloop
  endfacet
  facet normal -1 0 0
    outer loop
      vertex 0.49 -1.56 3.24
      vertex 0.49 -1.56 2.99
      vertex 0.49 -1.79 3.24
    endloop
  endfacet
  facet normal -1 0 0
    outer loop
      vertex 0.49 -1.56 2.99
      vertex 0.49 -1.79 2.99
      vertex 0.49 -1.79 3.24
    endloop
  endfacet
  facet normal -1 0 0
    outer loop
      vertex -0.5 -1.8 2.99
      vertex -0.5 -1.8 3.25
      vertex -0.5 -1.55 2.99
    endloop
  endfacet
  facet normal -1 0 0
    outer loop
      vertex -0.5 -1.8 3.25
      vertex -0.5 -1.55 3.25
      vertex -0.5 -1.55 2.99
    endloop
  endfacet
  facet normal 0 0 -1
    outer loop
      vertex 0.15 1.99 3.1
      vertex 0.15 -1.55 3.1
      vertex -0.15 1.99 3.1
    endloop
  endfacet
  facet normal 0 0 -1
    outer loop
      vertex 0.15 -1.55 3.1
      vertex -0.15 -1.55 3.1
      vertex -0.15 1.99 3.1
    endloop
  endfacet
endsolid Duct
solid Inlet
  facet normal 0 1 0
    outer loop
      vertex -0.15 2 3.25
      vertex 0.15 2 3.25
      vertex -0.15 2 3.1
    endloop
  endfacet
  facet normal 0 1 0
    outer loop
      vertex 0.15 2 3.25
      vertex 0.15 2 3.1
      vertex -0.15 2 3.1
    endloop
  endfacet
  facet normal 0 -1 0
    outer loop
      vertex 0.15 1.99 3.25
      vertex -0.15 1.99 3.25
      vertex 0.15 1.99 3.1
    endloop
  endfacet
  facet normal 0 -1 0
    outer loop
      vertex -0.15 1.99 3.25
      vertex -0.15 1.99 3.1
      vertex 0.15 1.99 3.1
    endloop
  endfacet
  facet normal 0 0 -1
    outer loop
      vertex 0.15 1.99 3.1
      vertex -0.15 1.99 3.1
      vertex 0.15 2 3.1
    endloop
  endfacet
  facet normal 0 0 -1
    outer loop
      vertex -0.15 1.99 3.1
      vertex -0.15 2 3.1
      vertex 0.15 2 3.1
    endloop
  endfacet
  facet normal -1 0 0
    outer loop
      vertex -0.15 1.99 3.1
      vertex -0.15 1.99 3.25
      vertex -0.15 2 3.1
    endloop
  endfacet
  facet normal -1 0 0
    outer loop
      vertex -0.15 1.99 3.25
      vertex -0.15 2 3.25
      vertex -0.15 2 3.1
    endloop
  endfacet
  facet normal 0 0 1
    outer loop
      vertex -0.15 1.99 3.25
      vertex 0.15 1.99 3.25
      vertex -0.15 2 3.25
    endloop
  endfacet
  facet normal 0 0 1
    outer loop
      vertex 0.15 1.99 3.25
      vertex 0.15 2 3.25
      vertex -0.15 2 3.25
    endloop
  endfacet
  facet normal 1 0 0
    outer loop
      vertex 0.15 1.99 3.25
      vertex 0.15 1.99 3.1
      vertex 0.15 2 3.25
    endloop
  endfacet
  facet normal 1 0 0
    outer loop
      vertex 0.15 1.99 3.1
      vertex 0.15 2 3.1
      vertex 0.15 2 3.25
    endloop
  endfacet
endsolid Inlet
solid Outlet
  facet normal 0 1 0
    outer loop
      vertex -0.5 2 2.4
      vertex -0.5 2 2.6
      vertex 0.5 2 2.4
    endloop
  endfacet
  facet normal 0 1 0
    outer loop
      vertex -0.5 2 2.6
      vertex 0.5 2 2.6
      vertex 0.5 2 2.4
    endloop
  endfacet
  facet normal 0 -1 0
    outer loop
      vertex -0.5 1.99 2.6
      vertex -0.5 1.99 2.4
      vertex 0.5 1.99 2.6
    endloop
  endfacet
  facet normal 0 -1 0
    outer loop
      vertex -0.5 1.99 2.4
      vertex 0.5 1.99 2.4
      vertex 0.5 1.99 2.6
    endloop
  endfacet
  facet normal 1 0 0
    outer loop
      vertex 0.5 1.99 2.6
      vertex 0.5 1.99 2.4
      vertex 0.5 2 2.6
    endloop
  endfacet
  facet normal 1 0 0
    outer loop
      vertex 0.5 1.99 2.4
      vertex 0.5 2 2.4
      vertex 0.5 2 2.6
    endloop
  endfacet
  facet normal 0 0 -1
    outer loop
      vertex 0.5 1.99 2.4
      vertex -0.5 1.99 2.4
      vertex 0.5 2 2.4
    endloop
  endfacet
  facet normal 0 0 -1
    outer loop
      vertex -0.5 1.99 2.4
      vertex -0.5 2 2.4
      vertex 0.5 2 2.4
    endloop
  endfacet
  facet normal -1 0 0
    outer loop
      vertex -0.5 1.99 2.4
      vertex -0.5 1.99 2.6
      vertex -0.5 2 2.4
    endloop
  endfacet
  facet normal -1 0 0
    outer loop
      vertex -0.5 1.99 2.6
      vertex -0.5 2 2.6
      vertex -0.5 2 2.4
    endloop
  endfacet
  facet normal 0 0 1
    outer loop
      vertex -0.5 1.99 2.6
      vertex 0.5 1.99 2.6
      vertex -0.5 2 2.6
    endloop
  endfacet
  facet normal 0 0 1
    outer loop
      vertex 0.5 1.99 2.6
      vertex 0.5 2 2.6
      vertex -0.5 2 2.6
    endloop
  endfacet
endsolid Outlet
solid Person1
facet normal 0.000000 -0.000000 -0.003861
  outer loop
    vertex 0.188646 0.017622 0.000000
    vertex 0.190511 -0.001613 0.000000
    vertex -0.009255 -0.011276 0.000000
  endloop
endfacet
facet normal 0.000000 -0.000000 -0.001933
  outer loop
    vertex 0.190511 -0.001613 0.000000
    vertex 0.190745 -0.011276 0.000000
    vertex -0.009255 -0.011276 0.000000
  endloop
endfacet
facet normal 0.000000 0.000000 -0.001933
  outer loop
    vertex -0.009255 -0.011276 0.000000
    vertex 0.190745 -0.011276 0.000000
    vertex 0.190511 -0.020938 0.000000
  endloop
endfacet
facet normal 0.000000 -0.000000 -0.003861
  outer loop
    vertex 0.172120 0.073005 0.000000
    vertex 0.179407 0.055106 0.000000
    vertex -0.009255 -0.011276 0.000000
  endloop
endfacet
facet normal 0.000000 -0.000000 -0.003861
  outer loop
    vertex 0.179407 0.055106 0.000000
    vertex 0.184933 0.036587 0.000000
    vertex -0.009255 -0.011276 0.000000
  endloop
endfacet
facet normal 0.000000 0.000000 -0.003861
  outer loop
    vertex -0.009255 -0.011276 0.000000
    vertex 0.184933 0.036587 0.000000
    vertex 0.188646 0.017622 0.000000
  endloop
endfacet
facet normal 0.000000 -0.000000 -0.003861
  outer loop
    vertex 0.140447 0.121349 0.000000
    vertex 0.152548 0.106281 0.000000
    vertex -0.009255 -0.011276 0.000000
  endloop
endfacet
facet normal 0.000000 -0.000000 -0.003861
  outer loop
    vertex 0.152548 0.106281 0.000000
    vertex 0.163139 0.090116 0.000000
    vertex -0.009255 -0.011276 0.000000
  endloop
endfacet
facet normal 0.000000 0.000000 -0.003861
  outer loop
    vertex -0.009255 -0.011276 0.000000
    vertex 0.163139 0.090116 0.000000
    vertex 0.172120 0.073005 0.000000
  endloop
endfacet
facet normal 0.000000 -0.000000 -0.003860
  outer loop
    vertex 0.096273 0.158618 0.000000
    vertex 0.112177 0.147640 0.000000
    vertex -0.009255 -0.011276 0.000000
  endloop
endfacet
facet normal 0.000000 -0.000000 -0.003861
  outer loop
    vertex 0.112177 0.147640 0.000000
    vertex 0.126948 0.135178 0.000000
    vertex -0.009255 -0.011276 0.000000
  endloop
endfacet
facet normal 0.000000 0.000000 -0.003861
  outer loop
    vertex -0.009255 -0.011276 0.000000
    vertex 0.126948 0.135178 0.000000
    vertex 0.140447 0.121349 0.000000
  endloop
endfacet
facet normal 0.000000 -0.000000 -0.003861
  outer loop
    vertex 0.043286 0.181699 0.000000
    vertex 0.061666 0.175728 0.000000
    vertex -0.009255 -0.011276 0.000000
  endloop
endfacet
facet normal 0.000000 -0.000000 -0.003861
  outer loop
    vertex 0.061666 0.175728 0.000000
    vertex 0.079383 0.168010 0.000000
    vertex -0.009255 -0.011276 0.000000
  endloop
endfacet
facet normal 0.000000 0.000000 -0.003861
  outer loop
    vertex -0.009255 -0.011276 0.000000
    vertex 0.079383 0.168010 0.000000
    vertex 0.096273 0.158618 0.000000
  endloop
endfacet
facet normal 0.000000 0.000000 -0.003861
  outer loop
    vertex -0.014088 0.188666 0.000000
    vertex 0.005232 0.188199 0.000000
    vertex -0.009255 -0.011276 0.000000
  endloop
endfacet
facet normal 0.000000 -0.000000 -0.003861
  outer loop
    vertex 0.005232 0.188199 0.000000
    vertex 0.024416 0.185870 0.000000
    vertex -0.009255 -0.011276 0.000000
  endloop
endfacet
facet normal 0.000000 0.000000 -0.003861
  outer loop
    vertex -0.009255 -0.011276 0.000000
    vertex 0.024416 0.185870 0.000000
    vertex 0.043286 0.181699 0.000000
  endloop
endfacet
facet normal 0.000000 0.000000 -0.003861
  outer loop
    vertex -0.071058 0.178936 0.000000
    vertex -0.052412 0.184013 0.000000
    vertex -0.009255 -0.011276 0.000000
  endloop
endfacet
facet normal 0.000000 0.000000 -0.003861
  outer loop
    vertex -0.052412 0.184013 0.000000
    vertex -0.033363 0.187266 0.000000
    vertex -0.009255 -0.011276 0.000000
  endloop
endfacet
facet normal 0.000000 0.000000 -0.003861
  outer loop
    vertex -0.009255 -0.011276 0.000000
    vertex -0.033363 0.187266 0.000000
    vertex -0.014088 0.188666 0.000000
  endloop
endfacet
facet normal 0.000000 0.000000 -0.003861
  outer loop
    vertex -0.122868 0.153321 0.000000
    vertex -0.106452 0.163518 0.000000
    vertex -0.009255 -0.011276 0.000000
  endloop
endfacet
facet normal 0.000000 0.000000 -0.003861
  outer loop
    vertex -0.106452 0.163518 0.000000
    vertex -0.089128 0.172083 0.000000
    vertex -0.009255 -0.011276 0.000000
  endloop
endfacet
facet normal 0.000000 0.000000 -0.003861
  outer loop
    vertex -0.009255 -0.011276 0.000000
    vertex -0.089128 0.172083 0.000000
    vertex -0.071058 0.178936 0.000000
  endloop
endfacet
facet normal 0.000000 0.000000 -0.003861
  outer loop
    vertex -0.165190 0.113961 0.000000
    vertex -0.152375 0.128427 0.000000
    vertex -0.009255 -0.011276 0.000000
  endloop
endfacet
facet normal 0.000000 0.000000 -0.003860
  outer loop
    vertex -0.152375 0.128427 0.000000
    vertex -0.138224 0.141587 0.000000
    vertex -0.009255 -0.011276 0.000000
  endloop
endfacet
facet normal 0.000000 0.000000 -0.003861
  outer loop
    vertex -0.009255 -0.011276 0.000000
    vertex -0.138224 0.141587 0.000000
    vertex -0.122868 0.153321 0.000000
  endloop
endfacet
facet normal 0.000000 0.000000 -0.003861
  outer loop
    vertex -0.194490 0.064143 0.000000
    vertex -0.186346 0.081669 0.000000
    vertex -0.009255 -0.011276 0.000000
  endloop
endfacet
facet normal 0.000000 0.000000 -0.003861
  outer loop
    vertex -0.186346 0.081669 0.000000
    vertex -0.176549 0.098327 0.000000
    vertex -0.009255 -0.011276 0.000000
  endloop
endfacet
facet normal 0.000000 0.000000 -0.003860
  outer loop
    vertex -0.009255 -0.011276 0.000000
    vertex -0.176549 0.098327 0.000000
    vertex -0.165190 0.113961 0.000000
  endloop
endfacet
facet normal 0.000000 0.000000 -0.003861
  outer loop
    vertex -0.208321 0.008027 0.000000
    vertex -0.205529 0.027150 0.000000
    vertex -0.009255 -0.011276 0.000000
  endloop
endfacet
facet normal 0.000000 0.000000 -0.003861
  outer loop
    vertex -0.205529 0.027150 0.000000
    vertex -0.200904 0.045913 0.000000
    vertex -0.009255 -0.011276 0.000000
  endloop
endfacet
facet normal 0.000000 0.000000 -0.003861
  outer loop
    vertex -0.009255 -0.011276 0.000000
    vertex -0.200904 0.045913 0.000000
    vertex -0.194490 0.064143 0.000000
  endloop
endfacet
facet normal 0.000000 0.000000 -0.003861
  outer loop
    vertex -0.205529 -0.049701 0.000000
    vertex -0.208321 -0.030578 0.000000
    vertex -0.009255 -0.011276 0.000000
  endloop
endfacet
facet normal 0.000000 0.000000 -0.003861
  outer loop
    vertex -0.208321 -0.030578 0.000000
    vertex -0.209255 -0.011276 0.000000
    vertex -0.009255 -0.011276 0.000000
  endloop
endfacet
facet normal 0.000000 0.000000 -0.003861
  outer loop
    vertex -0.009255 -0.011276 0.000000
    vertex -0.209255 -0.011276 0.000000
    vertex -0.208321 0.008027 0.000000
  endloop
endfacet
facet normal 0.000000 0.000000 -0.003861
  outer loop
    vertex -0.186346 -0.104220 0.000000
    vertex -0.194490 -0.086695 0.000000
    vertex -0.009255 -0.011276 0.000000
  endloop
endfacet
facet normal 0.000000 0.000000 -0.003861
  outer loop
    vertex -0.194490 -0.086695 0.000000
    vertex -0.200904 -0.068465 0.000000
    vertex -0.009255 -0.011276 0.000000
  endloop
endfacet
facet normal 0.000000 0.000000 -0.003861
  outer loop
    vertex -0.009255 -0.011276 0.000000
    vertex -0.200904 -0.068465 0.000000
    vertex -0.205529 -0.049701 0.000000
  endloop
endfacet
facet normal 0.000000 0.000000 -0.003861
  outer loop
    vertex -0.152375 -0.150978 0.000000
    vertex -0.165190 -0.136513 0.000000
    vertex -0.009255 -0.011276 0.000000
  endloop
endfacet
facet normal 0.000000 0.000000 -0.003861
  outer loop
    vertex -0.165190 -0.136513 0.000000
    vertex -0.176549 -0.120878 0.000000
    vertex -0.009255 -0.011276 0.000000
  endloop
endfacet
facet normal 0.000000 0.000000 -0.003861
  outer loop
    vertex -0.009255 -0.011276 0.000000
    vertex -0.176549 -0.120878 0.000000
    vertex -0.186346 -0.104220 0.000000
  endloop
endfacet
facet normal 0.000000 0.000000 -0.003861
  outer loop
    vertex -0.106452 -0.186069 0.000000
    vertex -0.122868 -0.175872 0.000000
    vertex -0.009255 -0.011276 0.000000
  endloop
endfacet
facet normal 0.000000 0.000000 -0.003861
  outer loop
    vertex -0.122868 -0.175872 0.000000
    vertex -0.138224 -0.164139 0.000000
    vertex -0.009255 -0.011276 0.000000
  endloop
endfacet
facet normal 0.000000 0.000000 -0.003861
  outer loop
    vertex -0.009255 -0.011276 0.000000
    vertex -0.138224 -0.164139 0.000000
    vertex -0.152375 -0.150978 0.000000
  endloop
endfacet
facet normal 0.000000 0.000000 -0.003861
  outer loop
    vertex -0.052412 -0.206564 0.000000
    vertex -0.071058 -0.201487 0.000000
    vertex -0.009255 -0.011276 0.000000
  endloop
endfacet
facet normal 0.000000 0.000000 -0.003861
  outer loop
    vertex -0.071058 -0.201487 0.000000
    vertex -0.089128 -0.194634 0.000000
    vertex -0.009255 -0.011276 0.000000
  endloop
endfacet
facet normal 0.000000 0.000000 -0.003861
  outer loop
    vertex -0.009255 -0.011276 0.000000
    vertex -0.089128 -0.194634 0.000000
    vertex -0.106452 -0.186069 0.000000
  endloop
endfacet
facet normal -0.000000 0.000000 -0.003861
  outer loop
    vertex 0.005232 -0.210750 0.000000
    vertex -0.014088 -0.211217 0.000000
    vertex -0.009255 -0.011276 0.000000
  endloop
endfacet
facet normal 0.000000 0.000000 -0.003861
  outer loop
    vertex -0.014088 -0.211217 0.000000
    vertex -0.033363 -0.209817 0.000000
    vertex -0.009255 -0.011276 0.000000
  endloop
endfacet
facet normal 0.000000 0.000000 -0.003861
  outer loop
    vertex -0.009255 -0.011276 0.000000
    vertex -0.033363 -0.209817 0.000000
    vertex -0.052412 -0.206564 0.000000
  endloop
endfacet
facet normal -0.000000 0.000000 -0.003861
  outer loop
    vertex 0.061666 -0.198279 0.000000
    vertex 0.043286 -0.204251 0.000000
    vertex -0.009255 -0.011276 0.000000
  endloop
endfacet
facet normal -0.000000 0.000000 -0.003861
  outer loop
    vertex 0.043286 -0.204251 0.000000
    vertex 0.024416 -0.208421 0.000000
    vertex -0.009255 -0.011276 0.000000
  endloop
endfacet
facet normal 0.000000 0.000000 -0.003861
  outer loop
    vertex -0.009255 -0.011276 0.000000
    vertex 0.024416 -0.208421 0.000000
    vertex 0.005232 -0.210750 0.000000
  endloop
endfacet
facet normal -0.000000 0.000000 -0.003860
  outer loop
    vertex 0.112177 -0.170191 0.000000
    vertex 0.096273 -0.181169 0.000000
    vertex -0.009255 -0.011276 0.000000
  endloop
endfacet
facet normal -0.000000 0.000000 -0.003861
  outer loop
    vertex 0.096273 -0.181169 0.000000
    vertex 0.079383 -0.190561 0.000000
    vertex -0.009255 -0.011276 0.000000
  endloop
endfacet
facet normal 0.000000 0.000000 -0.003861
  outer loop
    vertex -0.009255 -0.011276 0.000000
    vertex 0.079383 -0.190561 0.000000
    vertex 0.061666 -0.198279 0.000000
  endloop
endfacet
facet normal -0.000000 0.000000 -0.003860
  outer loop
    vertex 0.152548 -0.128833 0.000000
    vertex 0.140447 -0.143900 0.000000
    vertex -0.009255 -0.011276 0.000000
  endloop
endfacet
facet normal -0.000000 0.000000 -0.003861
  outer loop
    vertex 0.140447 -0.143900 0.000000
    vertex 0.126948 -0.157729 0.000000
    vertex -0.009255 -0.011276 0.000000
  endloop
endfacet
facet normal 0.000000 0.000000 -0.003861
  outer loop
    vertex -0.009255 -0.011276 0.000000
    vertex 0.126948 -0.157729 0.000000
    vertex 0.112177 -0.170191 0.000000
  endloop
endfacet
facet normal -0.000000 0.000000 -0.003861
  outer loop
    vertex 0.179407 -0.077657 0.000000
    vertex 0.172120 -0.095556 0.000000
    vertex -0.009255 -0.011276 0.000000
  endloop
endfacet
facet normal -0.000000 0.000000 -0.003861
  outer loop
    vertex 0.172120 -0.095556 0.000000
    vertex 0.163139 -0.112668 0.000000
    vertex -0.009255 -0.011276 0.000000
  endloop
endfacet
facet normal 0.000000 0.000000 -0.003861
  outer loop
    vertex -0.009255 -0.011276 0.000000
    vertex 0.163139 -0.112668 0.000000
    vertex 0.152548 -0.128833 0.000000
  endloop
endfacet
facet normal -0.000000 0.000000 -0.003861
  outer loop
    vertex 0.190511 -0.020938 0.000000
    vertex 0.188646 -0.040174 0.000000
    vertex -0.009255 -0.011276 0.000000
  endloop
endfacet
facet normal -0.000000 0.000000 -0.003861
  outer loop
    vertex 0.188646 -0.040174 0.000000
    vertex 0.184933 -0.059139 0.000000
    vertex -0.009255 -0.011276 0.000000
  endloop
endfacet
facet normal 0.000000 0.000000 -0.003861
  outer loop
    vertex -0.009255 -0.011276 0.000000
    vertex 0.184933 -0.059139 0.000000
    vertex 0.179407 -0.077657 0.000000
  endloop
endfacet
facet normal 0.000000 -0.000000 0.003861
  outer loop
    vertex 0.188646 -0.040174 1.600000
    vertex 0.190511 -0.020938 1.600000
    vertex -0.009255 -0.011276 1.600000
  endloop
endfacet
facet normal 0.000000 -0.000000 0.001933
  outer loop
    vertex 0.190511 -0.020938 1.600000
    vertex 0.190745 -0.011276 1.600000
    vertex -0.009255 -0.011276 1.600000
  endloop
endfacet
facet normal 0.000000 0.000000 0.001933
  outer loop
    vertex -0.009255 -0.011276 1.600000
    vertex 0.190745 -0.011276 1.600000
    vertex 0.190511 -0.001613 1.600000
  endloop
endfacet
facet normal 0.000000 -0.000000 0.003861
  outer loop
    vertex 0.172120 -0.095556 1.600000
    vertex 0.179407 -0.077657 1.600000
    vertex -0.009255 -0.011276 1.600000
  endloop
endfacet
facet normal 0.000000 -0.000000 0.003861
  outer loop
    vertex 0.179407 -0.077657 1.600000
    vertex 0.184933 -0.059139 1.600000
    vertex -0.009255 -0.011276 1.600000
  endloop
endfacet
facet normal 0.000000 0.000000 0.003861
  outer loop
    vertex -0.009255 -0.011276 1.600000
    vertex 0.184933 -0.059139 1.600000
    vertex 0.188646 -0.040174 1.600000
  endloop
endfacet
facet normal 0.000000 -0.000000 0.003860
  outer loop
    vertex 0.140447 -0.143900 1.600000
    vertex 0.152548 -0.128833 1.600000
    vertex -0.009255 -0.011276 1.600000
  endloop
endfacet
facet normal 0.000000 -0.000000 0.003861
  outer loop
    vertex 0.152548 -0.128833 1.600000
    vertex 0.163139 -0.112668 1.600000
    vertex -0.009255 -0.011276 1.600000
  endloop
endfacet
facet normal 0.000000 0.000000 0.003861
  outer loop
    vertex -0.009255 -0.011276 1.600000
    vertex 0.163139 -0.112668 1.600000
    vertex 0.172120 -0.095556 1.600000
  endloop
endfacet
facet normal 0.000000 -0.000000 0.003860
  outer loop
    vertex 0.096273 -0.181169 1.600000
    vertex 0.112177 -0.170191 1.600000
    vertex -0.009255 -0.011276 1.600000
  endloop
endfacet
facet normal 0.000000 -0.000000 0.003861
  outer loop
    vertex 0.112177 -0.170191 1.600000
    vertex 0.126948 -0.157729 1.600000
    vertex -0.009255 -0.011276 1.600000
  endloop
endfacet
facet normal 0.000000 0.000000 0.003861
  outer loop
    vertex -0.009255 -0.011276 1.600000
    vertex 0.126948 -0.157729 1.600000
    vertex 0.140447 -0.143900 1.600000
  endloop
endfacet
facet normal 0.000000 -0.000000 0.003861
  outer loop
    vertex 0.043286 -0.204251 1.600000
    vertex 0.061666 -0.198279 1.600000
    vertex -0.009255 -0.011276 1.600000
  endloop
endfacet
facet normal 0.000000 -0.000000 0.003861
  outer loop
    vertex 0.061666 -0.198279 1.600000
    vertex 0.079383 -0.190561 1.600000
    vertex -0.009255 -0.011276 1.600000
  endloop
endfacet
facet normal 0.000000 0.000000 0.003861
  outer loop
    vertex -0.009255 -0.011276 1.600000
    vertex 0.079383 -0.190561 1.600000
    vertex 0.096273 -0.181169 1.600000
  endloop
endfacet
facet normal 0.000000 0.000000 0.003861
  outer loop
    vertex -0.014088 -0.211217 1.600000
    vertex 0.005232 -0.210750 1.600000
    vertex -0.009255 -0.011276 1.600000
  endloop
endfacet
facet normal 0.000000 -0.000000 0.003861
  outer loop
    vertex 0.005232 -0.210750 1.600000
    vertex 0.024416 -0.208421 1.600000
    vertex -0.009255 -0.011276 1.600000
  endloop
endfacet
facet normal 0.000000 0.000000 0.003861
  outer loop
    vertex -0.009255 -0.011276 1.600000
    vertex 0.024416 -0.208421 1.600000
    vertex 0.043286 -0.204251 1.600000
  endloop
endfacet
facet normal -0.000000 0.000000 0.003861
  outer loop
    vertex -0.071058 -0.201487 1.600000
    vertex -0.052412 -0.206564 1.600000
    vertex -0.009255 -0.011276 1.600000
  endloop
endfacet
facet normal -0.000000 0.000000 0.003861
  outer loop
    vertex -0.052412 -0.206564 1.600000
    vertex -0.033363 -0.209817 1.600000
    vertex -0.009255 -0.011276 1.600000
  endloop
endfacet
facet normal 0.000000 0.000000 0.003861
  outer loop
    vertex -0.009255 -0.011276 1.600000
    vertex -0.033363 -0.209817 1.600000
    vertex -0.014088 -0.211217 1.600000
  endloop
endfacet
facet normal -0.000000 0.000000 0.003861
  outer loop
    vertex -0.122868 -0.175872 1.600000
    vertex -0.106452 -0.186069 1.600000
    vertex -0.009255 -0.011276 1.600000
  endloop
endfacet
facet normal -0.000000 0.000000 0.003861
  outer loop
    vertex -0.106452 -0.186069 1.600000
    vertex -0.089128 -0.194634 1.600000
    vertex -0.009255 -0.011276 1.600000
  endloop
endfacet
facet normal 0.000000 0.000000 0.003861
  outer loop
    vertex -0.009255 -0.011276 1.600000
    vertex -0.089128 -0.194634 1.600000
    vertex -0.071058 -0.201487 1.600000
  endloop
endfacet
facet normal -0.000000 0.000000 0.003861
  outer loop
    vertex -0.165190 -0.136513 1.600000
    vertex -0.152375 -0.150978 1.600000
    vertex -0.009255 -0.011276 1.600000
  endloop
endfacet
facet normal -0.000000 0.000000 0.003861
  outer loop
    vertex -0.152375 -0.150978 1.600000
    vertex -0.138224 -0.164139 1.600000
    vertex -0.009255 -0.011276 1.600000
  endloop
endfacet
facet normal 0.000000 0.000000 0.003861
  outer loop
    vertex -0.009255 -0.011276 1.600000
    vertex -0.138224 -0.164139 1.600000
    vertex -0.122868 -0.175872 1.600000
  endloop
endfacet
facet normal -0.000000 0.000000 0.003861
  outer loop
    vertex -0.194490 -0.086695 1.600000
    vertex -0.186346 -0.104220 1.600000
    vertex -0.009255 -0.011276 1.600000
  endloop
endfacet
facet normal -0.000000 0.000000 0.003861
  outer loop
    vertex -0.186346 -0.104220 1.600000
    vertex -0.176549 -0.120878 1.600000
    vertex -0.009255 -0.011276 1.600000
  endloop
endfacet
facet normal 0.000000 0.000000 0.003861
  outer loop
    vertex -0.009255 -0.011276 1.600000
    vertex -0.176549 -0.120878 1.600000
    vertex -0.165190 -0.136513 1.600000
  endloop
endfacet
facet normal -0.000000 0.000000 0.003861
  outer loop
    vertex -0.208321 -0.030578 1.600000
    vertex -0.205529 -0.049701 1.600000
    vertex -0.009255 -0.011276 1.600000
  endloop
endfacet
facet normal -0.000000 0.000000 0.003861
  outer loop
    vertex -0.205529 -0.049701 1.600000
    vertex -0.200904 -0.068465 1.600000
    vertex -0.009255 -0.011276 1.600000
  endloop
endfacet
facet normal 0.000000 0.000000 0.003861
  outer loop
    vertex -0.009255 -0.011276 1.600000
    vertex -0.200904 -0.068465 1.600000
    vertex -0.194490 -0.086695 1.600000
  endloop
endfacet
facet normal 0.000000 0.000000 0.003861
  outer loop
    vertex -0.205529 0.027150 1.600000
    vertex -0.208321 0.008027 1.600000
    vertex -0.009255 -0.011276 1.600000
  endloop
endfacet
facet normal 0.000000 0.000000 0.003861
  outer loop
    vertex -0.208321 0.008027 1.600000
    vertex -0.209255 -0.011276 1.600000
    vertex -0.009255 -0.011276 1.600000
  endloop
endfacet
facet normal 0.000000 0.000000 0.003861
  outer loop
    vertex -0.009255 -0.011276 1.600000
    vertex -0.209255 -0.011276 1.600000
    vertex -0.208321 -0.030578 1.600000
  endloop
endfacet
facet normal 0.000000 0.000000 0.003861
  outer loop
    vertex -0.186346 0.081669 1.600000
    vertex -0.194490 0.064143 1.600000
    vertex -0.009255 -0.011276 1.600000
  endloop
endfacet
facet normal 0.000000 0.000000 0.003861
  outer loop
    vertex -0.194490 0.064143 1.600000
    vertex -0.200904 0.045913 1.600000
    vertex -0.009255 -0.011276 1.600000
  endloop
endfacet
facet normal 0.000000 0.000000 0.003861
  outer loop
    vertex -0.009255 -0.011276 1.600000
    vertex -0.200904 0.045913 1.600000
    vertex -0.205529 0.027150 1.600000
  endloop
endfacet
facet normal 0.000000 0.000000 0.003861
  outer loop
    vertex -0.152375 0.128427 1.600000
    vertex -0.165190 0.113961 1.600000
    vertex -0.009255 -0.011276 1.600000
  endloop
endfacet
facet normal 0.000000 0.000000 0.003860
  outer loop
    vertex -0.165190 0.113961 1.600000
    vertex -0.176549 0.098327 1.600000
    vertex -0.009255 -0.011276 1.600000
  endloop
endfacet
facet normal 0.000000 0.000000 0.003861
  outer loop
    vertex -0.009255 -0.011276 1.600000
    vertex -0.176549 0.098327 1.600000
    vertex -0.186346 0.081669 1.600000
  endloop
endfacet
facet normal 0.000000 0.000000 0.003861
  outer loop
    vertex -0.106452 0.163518 1.600000
    vertex -0.122868 0.153321 1.600000
    vertex -0.009255 -0.011276 1.600000
  endloop
endfacet
facet normal 0.000000 0.000000 0.003861
  outer loop
    vertex -0.122868 0.153321 1.600000
    vertex -0.138224 0.141587 1.600000
    vertex -0.009255 -0.011276 1.600000
  endloop
endfacet
facet normal 0.000000 0.000000 0.003860
  outer loop
    vertex -0.009255 -0.011276 1.600000
    vertex -0.138224 0.141587 1.600000
    vertex -0.152375 0.128427 1.600000
  endloop
endfacet
facet normal 0.000000 0.000000 0.003861
  outer loop
    vertex -0.052412 0.184013 1.600000
    vertex -0.071058 0.178936 1.600000
    vertex -0.009255 -0.011276 1.600000
  endloop
endfacet
facet normal 0.000000 0.000000 0.003861
  outer loop
    vertex -0.071058 0.178936 1.600000
    vertex -0.089128 0.172083 1.600000
    vertex -0.009255 -0.011276 1.600000
  endloop
endfacet
facet normal 0.000000 0.000000 0.003861
  outer loop
    vertex -0.009255 -0.011276 1.600000
    vertex -0.089128 0.172083 1.600000
    vertex -0.106452 0.163518 1.600000
  endloop
endfacet
facet normal 0.000000 0.000000 0.003861
  outer loop
    vertex 0.005232 0.188199 1.600000
    vertex -0.014088 0.188666 1.600000
    vertex -0.009255 -0.011276 1.600000
  endloop
endfacet
facet normal 0.000000 0.000000 0.003861
  outer loop
    vertex -0.014088 0.188666 1.600000
    vertex -0.033363 0.187266 1.600000
    vertex -0.009255 -0.011276 1.600000
  endloop
endfacet
facet normal 0.000000 0.000000 0.003861
  outer loop
    vertex -0.009255 -0.011276 1.600000
    vertex -0.033363 0.187266 1.600000
    vertex -0.052412 0.184013 1.600000
  endloop
endfacet
facet normal 0.000000 0.000000 0.003861
  outer loop
    vertex 0.061666 0.175728 1.600000
    vertex 0.043286 0.181699 1.600000
    vertex -0.009255 -0.011276 1.600000
  endloop
endfacet
facet normal 0.000000 0.000000 0.003861
  outer loop
    vertex 0.043286 0.181699 1.600000
    vertex 0.024416 0.185870 1.600000
    vertex -0.009255 -0.011276 1.600000
  endloop
endfacet
facet normal 0.000000 0.000000 0.003861
  outer loop
    vertex -0.009255 -0.011276 1.600000
    vertex 0.024416 0.185870 1.600000
    vertex 0.005232 0.188199 1.600000
  endloop
endfacet
facet normal 0.000000 0.000000 0.003860
  outer loop
    vertex 0.112177 0.147640 1.600000
    vertex 0.096273 0.158618 1.600000
    vertex -0.009255 -0.011276 1.600000
  endloop
endfacet
facet normal 0.000000 0.000000 0.003861
  outer loop
    vertex 0.096273 0.158618 1.600000
    vertex 0.079383 0.168010 1.600000
    vertex -0.009255 -0.011276 1.600000
  endloop
endfacet
facet normal 0.000000 0.000000 0.003861
  outer loop
    vertex -0.009255 -0.011276 1.600000
    vertex 0.079383 0.168010 1.600000
    vertex 0.061666 0.175728 1.600000
  endloop
endfacet
facet normal 0.000000 0.000000 0.003861
  outer loop
    vertex 0.152548 0.106281 1.600000
    vertex 0.140447 0.121349 1.600000
    vertex -0.009255 -0.011276 1.600000
  endloop
endfacet
facet normal 0.000000 0.000000 0.003861
  outer loop
    vertex 0.140447 0.121349 1.600000
    vertex 0.126948 0.135178 1.600000
    vertex -0.009255 -0.011276 1.600000
  endloop
endfacet
facet normal 0.000000 0.000000 0.003861
  outer loop
    vertex -0.009255 -0.011276 1.600000
    vertex 0.126948 0.135178 1.600000
    vertex 0.112177 0.147640 1.600000
  endloop
endfacet
facet normal 0.000000 0.000000 0.003861
  outer loop
    vertex 0.179407 0.055106 1.600000
    vertex 0.172120 0.073005 1.600000
    vertex -0.009255 -0.011276 1.600000
  endloop
endfacet
facet normal 0.000000 0.000000 0.003861
  outer loop
    vertex 0.172120 0.073005 1.600000
    vertex 0.163139 0.090116 1.600000
    vertex -0.009255 -0.011276 1.600000
  endloop
endfacet
facet normal 0.000000 0.000000 0.003861
  outer loop
    vertex -0.009255 -0.011276 1.600000
    vertex 0.163139 0.090116 1.600000
    vertex 0.152548 0.106281 1.600000
  endloop
endfacet
facet normal 0.000000 0.000000 0.003861
  outer loop
    vertex 0.190511 -0.001613 1.600000
    vertex 0.188646 0.017622 1.600000
    vertex -0.009255 -0.011276 1.600000
  endloop
endfacet
facet normal 0.000000 0.000000 0.003861
  outer loop
    vertex 0.188646 0.017622 1.600000
    vertex 0.184933 0.036587 1.600000
    vertex -0.009255 -0.011276 1.600000
  endloop
endfacet
facet normal 0.000000 0.000000 0.003861
  outer loop
    vertex -0.009255 -0.011276 1.600000
    vertex 0.184933 0.036587 1.600000
    vertex 0.179407 0.055106 1.600000
  endloop
endfacet
facet normal 0.015460 0.000374 0.000000
  outer loop
    vertex 0.190511 -0.001613 1.600000
    vertex 0.190745 -0.011276 1.600000
    vertex 0.190745 -0.011276 0.000000
  endloop
endfacet
facet normal 0.015460 -0.000374 0.000000
  outer loop
    vertex 0.190745 -0.011276 0.000000
    vertex 0.190745 -0.011276 1.600000
    vertex 0.190511 -0.020938 0.000000
  endloop
endfacet
facet normal 0.015460 -0.000374 0.000000
  outer loop
    vertex 0.190745 -0.011276 1.600000
    vertex 0.190511 -0.020938 1.600000
    vertex 0.190511 -0.020938 0.000000
  endloop
endfacet
facet normal 0.030776 -0.002984 0.000000
  outer loop
    vertex 0.190511 -0.020938 1.600000
    vertex 0.188646 -0.040174 1.600000
    vertex 0.190511 -0.020938 0.000000
  endloop
endfacet
facet normal 0.030776 -0.002984 0.000000
  outer loop
    vertex 0.190511 -0.020938 0.000000
    vertex 0.188646 -0.040174 1.600000
    vertex 0.188646 -0.040174 0.000000
  endloop
endfacet
facet normal 0.030344 -0.005941 0.000000
  outer loop
    vertex 0.188646 -0.040174 1.600000
    vertex 0.184933 -0.059139 1.600000
    vertex 0.188646 -0.040174 0.000000
  endloop
endfacet
facet normal 0.030344 -0.005941 0.000000
  outer loop
    vertex 0.188646 -0.040174 0.000000
    vertex 0.184933 -0.059139 1.600000
    vertex 0.184933 -0.059139 0.000000
  endloop
endfacet
facet normal 0.029629 -0.008842 0.000000
  outer loop
    vertex 0.184933 -0.059139 1.600000
    vertex 0.179407 -0.077657 1.600000
    vertex 0.184933 -0.059139 0.000000
  endloop
endfacet
facet normal 0.029629 -0.008842 0.000000
  outer loop
    vertex 0.184933 -0.059139 0.000000
    vertex 0.179407 -0.077657 1.600000
    vertex 0.179407 -0.077657 0.000000
  endloop
endfacet
facet normal 0.028638 -0.011659 0.000000
  outer loop
    vertex 0.179407 -0.077657 1.600000
    vertex 0.172120 -0.095556 1.600000
    vertex 0.179407 -0.077657 0.000000
  endloop
endfacet
facet normal 0.028638 -0.011659 0.000000
  outer loop
    vertex 0.179407 -0.077657 0.000000
    vertex 0.172120 -0.095556 1.600000
    vertex 0.172120 -0.095556 0.000000
  endloop
endfacet
facet normal 0.027379 -0.014370 0.000000
  outer loop
    vertex 0.172120 -0.095556 1.600000
    vertex 0.163139 -0.112668 1.600000
    vertex 0.172120 -0.095556 0.000000
  endloop
endfacet
facet normal 0.027379 -0.014370 0.000000
  outer loop
    vertex 0.172120 -0.095556 0.000000
    vertex 0.163139 -0.112668 1.600000
    vertex 0.163139 -0.112668 0.000000
  endloop
endfacet
facet normal 0.025864 -0.016946 0.000000
  outer loop
    vertex 0.163139 -0.112668 1.600000
    vertex 0.152548 -0.128833 1.600000
    vertex 0.163139 -0.112668 0.000000
  endloop
endfacet
facet normal 0.025864 -0.016946 0.000000
  outer loop
    vertex 0.163139 -0.112668 0.000000
    vertex 0.152548 -0.128833 1.600000
    vertex 0.152548 -0.128833 0.000000
  endloop
endfacet
facet normal 0.024107 -0.019362 0.000000
  outer loop
    vertex 0.152548 -0.128833 1.600000
    vertex 0.140447 -0.143900 1.600000
    vertex 0.152548 -0.128833 0.000000
  endloop
endfacet
facet normal 0.024107 -0.019362 0.000000
  outer loop
    vertex 0.152548 -0.128833 0.000000
    vertex 0.140447 -0.143900 1.600000
    vertex 0.140447 -0.143900 0.000000
  endloop
endfacet
facet normal 0.022126 -0.021598 0.000000
  outer loop
    vertex 0.140447 -0.143900 1.600000
    vertex 0.126948 -0.157729 1.600000
    vertex 0.140447 -0.143900 0.000000
  endloop
endfacet
facet normal 0.022126 -0.021598 0.000000
  outer loop
    vertex 0.140447 -0.143900 0.000000
    vertex 0.126948 -0.157729 1.600000
    vertex 0.126948 -0.157729 0.000000
  endloop
endfacet
facet normal 0.019939 -0.023634 0.000000
  outer loop
    vertex 0.126948 -0.157729 1.600000
    vertex 0.112177 -0.170191 1.600000
    vertex 0.126948 -0.157729 0.000000
  endloop
endfacet
facet normal 0.019939 -0.023634 0.000000
  outer loop
    vertex 0.126948 -0.157729 0.000000
    vertex 0.112177 -0.170191 1.600000
    vertex 0.112177 -0.170191 0.000000
  endloop
endfacet
facet normal 0.017565 -0.025447 0.000000
  outer loop
    vertex 0.112177 -0.170191 1.600000
    vertex 0.096273 -0.181169 1.600000
    vertex 0.112177 -0.170191 0.000000
  endloop
endfacet
facet normal 0.017565 -0.025447 0.000000
  outer loop
    vertex 0.112177 -0.170191 0.000000
    vertex 0.096273 -0.181169 1.600000
    vertex 0.096273 -0.181169 0.000000
  endloop
endfacet
facet normal 0.015027 -0.027024 0.000000
  outer loop
    vertex 0.096273 -0.181169 1.600000
    vertex 0.079383 -0.190561 1.600000
    vertex 0.096273 -0.181169 0.000000
  endloop
endfacet
facet normal 0.015027 -0.027024 0.000000
  outer loop
    vertex 0.096273 -0.181169 0.000000
    vertex 0.079383 -0.190561 1.600000
    vertex 0.079383 -0.190561 0.000000
  endloop
endfacet
facet normal 0.012349 -0.028348 0.000000
  outer loop
    vertex 0.079383 -0.190561 1.600000
    vertex 0.061666 -0.198279 1.600000
    vertex 0.079383 -0.190561 0.000000
  endloop
endfacet
facet normal 0.012349 -0.028348 0.000000
  outer loop
    vertex 0.079383 -0.190561 0.000000
    vertex 0.061666 -0.198279 1.600000
    vertex 0.061666 -0.198279 0.000000
  endloop
endfacet
facet normal 0.009555 -0.029407 0.000000
  outer loop
    vertex 0.061666 -0.198279 1.600000
    vertex 0.043286 -0.204251 1.600000
    vertex 0.061666 -0.198279 0.000000
  endloop
endfacet
facet normal 0.009555 -0.029407 0.000000
  outer loop
    vertex 0.061666 -0.198279 0.000000
    vertex 0.043286 -0.204251 1.600000
    vertex 0.043286 -0.204251 0.000000
  endloop
endfacet
facet normal 0.006672 -0.030192 0.000000
  outer loop
    vertex 0.043286 -0.204251 1.600000
    vertex 0.024416 -0.208421 1.600000
    vertex 0.043286 -0.204251 0.000000
  endloop
endfacet
facet normal 0.006672 -0.030192 0.000000
  outer loop
    vertex 0.043286 -0.204251 0.000000
    vertex 0.024416 -0.208421 1.600000
    vertex 0.024416 -0.208421 0.000000
  endloop
endfacet
facet normal 0.003726 -0.030695 0.000000
  outer loop
    vertex 0.024416 -0.208421 1.600000
    vertex 0.005232 -0.210750 1.600000
    vertex 0.024416 -0.208421 0.000000
  endloop
endfacet
facet normal 0.003726 -0.030695 0.000000
  outer loop
    vertex 0.024416 -0.208421 0.000000
    vertex 0.005232 -0.210750 1.600000
    vertex 0.005232 -0.210750 0.000000
  endloop
endfacet
facet normal 0.000747 -0.030912 0.000000
  outer loop
    vertex 0.005232 -0.210750 1.600000
    vertex -0.014088 -0.211217 1.600000
    vertex 0.005232 -0.210750 0.000000
  endloop
endfacet
facet normal 0.000747 -0.030912 0.000000
  outer loop
    vertex 0.005232 -0.210750 0.000000
    vertex -0.014088 -0.211217 1.600000
    vertex -0.014088 -0.211217 0.000000
  endloop
endfacet
facet normal -0.002240 -0.030839 -0.000000
  outer loop
    vertex -0.014088 -0.211217 1.600000
    vertex -0.033363 -0.209817 1.600000
    vertex -0.014088 -0.211217 0.000000
  endloop
endfacet
facet normal -0.002240 -0.030839 0.000000
  outer loop
    vertex -0.014088 -0.211217 0.000000
    vertex -0.033363 -0.209817 1.600000
    vertex -0.033363 -0.209817 0.000000
  endloop
endfacet
facet normal -0.005205 -0.030479 -0.000000
  outer loop
    vertex -0.033363 -0.209817 1.600000
    vertex -0.052412 -0.206564 1.600000
    vertex -0.033363 -0.209817 0.000000
  endloop
endfacet
facet normal -0.005205 -0.030479 0.000000
  outer loop
    vertex -0.033363 -0.209817 0.000000
    vertex -0.052412 -0.206564 1.600000
    vertex -0.052412 -0.206564 0.000000
  endloop
endfacet
facet normal -0.008123 -0.029834 -0.000000
  outer loop
    vertex -0.052412 -0.206564 1.600000
    vertex -0.071058 -0.201487 1.600000
    vertex -0.052412 -0.206564 0.000000
  endloop
endfacet
facet normal -0.008123 -0.029834 0.000000
  outer loop
    vertex -0.052412 -0.206564 0.000000
    vertex -0.071058 -0.201487 1.600000
    vertex -0.071058 -0.201487 0.000000
  endloop
endfacet
facet normal -0.010965 -0.028911 -0.000000
  outer loop
    vertex -0.071058 -0.201487 1.600000
    vertex -0.089128 -0.194634 1.600000
    vertex -0.071058 -0.201487 0.000000
  endloop
endfacet
facet normal -0.010965 -0.028911 0.000000
  outer loop
    vertex -0.071058 -0.201487 0.000000
    vertex -0.089128 -0.194634 1.600000
    vertex -0.089128 -0.194634 0.000000
  endloop
endfacet
facet normal -0.013704 -0.027718 -0.000000
  outer loop
    vertex -0.089128 -0.194634 1.600000
    vertex -0.106452 -0.186069 1.600000
    vertex -0.089128 -0.194634 0.000000
  endloop
endfacet
facet normal -0.013704 -0.027718 0.000000
  outer loop
    vertex -0.089128 -0.194634 0.000000
    vertex -0.106452 -0.186069 1.600000
    vertex -0.106452 -0.186069 0.000000
  endloop
endfacet
facet normal -0.016315 -0.026266 -0.000000
  outer loop
    vertex -0.106452 -0.186069 1.600000
    vertex -0.122868 -0.175872 1.600000
    vertex -0.106452 -0.186069 0.000000
  endloop
endfacet
facet normal -0.016315 -0.026266 0.000000
  outer loop
    vertex -0.106452 -0.186069 0.000000
    vertex -0.122868 -0.175872 1.600000
    vertex -0.122868 -0.175872 0.000000
  endloop
endfacet
facet normal -0.018773 -0.024570 -0.000000
  outer loop
    vertex -0.122868 -0.175872 1.600000
    vertex -0.138224 -0.164139 1.600000
    vertex -0.122868 -0.175872 0.000000
  endloop
endfacet
facet normal -0.018773 -0.024570 0.000000
  outer loop
    vertex -0.122868 -0.175872 0.000000
    vertex -0.138224 -0.164139 1.600000
    vertex -0.138224 -0.164139 0.000000
  endloop
endfacet
facet normal -0.021058 -0.022642 -0.000000
  outer loop
    vertex -0.138224 -0.164139 1.600000
    vertex -0.152375 -0.150978 1.600000
    vertex -0.138224 -0.164139 0.000000
  endloop
endfacet
facet normal -0.021058 -0.022642 0.000000
  outer loop
    vertex -0.138224 -0.164139 0.000000
    vertex -0.152375 -0.150978 1.600000
    vertex -0.152375 -0.150978 0.000000
  endloop
endfacet
facet normal -0.023144 -0.020504 -0.000000
  outer loop
    vertex -0.152375 -0.150978 1.600000
    vertex -0.165190 -0.136513 1.600000
    vertex -0.152375 -0.150978 0.000000
  endloop
endfacet
facet normal -0.023144 -0.020504 0.000000
  outer loop
    vertex -0.152375 -0.150978 0.000000
    vertex -0.165190 -0.136513 1.600000
    vertex -0.165190 -0.136513 0.000000
  endloop
endfacet
facet normal -0.025016 -0.018174 -0.000000
  outer loop
    vertex -0.165190 -0.136513 1.600000
    vertex -0.176549 -0.120878 1.600000
    vertex -0.165190 -0.136513 0.000000
  endloop
endfacet
facet normal -0.025016 -0.018174 0.000000
  outer loop
    vertex -0.165190 -0.136513 0.000000
    vertex -0.176549 -0.120878 1.600000
    vertex -0.176549 -0.120878 0.000000
  endloop
endfacet
facet normal -0.026653 -0.015675 -0.000000
  outer loop
    vertex -0.176549 -0.120878 1.600000
    vertex -0.186346 -0.104220 1.600000
    vertex -0.176549 -0.120878 0.000000
  endloop
endfacet
facet normal -0.026653 -0.015675 0.000000
  outer loop
    vertex -0.176549 -0.120878 0.000000
    vertex -0.186346 -0.104220 1.600000
    vertex -0.186346 -0.104220 0.000000
  endloop
endfacet
facet normal -0.028041 -0.013030 -0.000000
  outer loop
    vertex -0.186346 -0.104220 1.600000
    vertex -0.194490 -0.086695 1.600000
    vertex -0.186346 -0.104220 0.000000
  endloop
endfacet
facet normal -0.028041 -0.013030 0.000000
  outer loop
    vertex -0.186346 -0.104220 0.000000
    vertex -0.194490 -0.086695 1.600000
    vertex -0.194490 -0.086695 0.000000
  endloop
endfacet
facet normal -0.029168 -0.010262 -0.000000
  outer loop
    vertex -0.194490 -0.086695 1.600000
    vertex -0.200904 -0.068465 1.600000
    vertex -0.194490 -0.086695 0.000000
  endloop
endfacet
facet normal -0.029168 -0.010262 0.000000
  outer loop
    vertex -0.194490 -0.086695 0.000000
    vertex -0.200904 -0.068465 1.600000
    vertex -0.200904 -0.068465 0.000000
  endloop
endfacet
facet normal -0.030022 -0.007400 -0.000000
  outer loop
    vertex -0.200904 -0.068465 1.600000
    vertex -0.205529 -0.049701 1.600000
    vertex -0.200904 -0.068465 0.000000
  endloop
endfacet
facet normal -0.030022 -0.007400 0.000000
  outer loop
    vertex -0.200904 -0.068465 0.000000
    vertex -0.205529 -0.049701 1.600000
    vertex -0.205529 -0.049701 0.000000
  endloop
endfacet
facet normal -0.030596 -0.004467 -0.000000
  outer loop
    vertex -0.205529 -0.049701 1.600000
    vertex -0.208321 -0.030578 1.600000
    vertex -0.205529 -0.049701 0.000000
  endloop
endfacet
facet normal -0.030596 -0.004467 0.000000
  outer loop
    vertex -0.205529 -0.049701 0.000000
    vertex -0.208321 -0.030578 1.600000
    vertex -0.208321 -0.030578 0.000000
  endloop
endfacet
facet normal -0.030884 -0.001494 -0.000000
  outer loop
    vertex -0.208321 -0.030578 1.600000
    vertex -0.209255 -0.011276 1.600000
    vertex -0.208321 -0.030578 0.000000
  endloop
endfacet
facet normal -0.030884 -0.001494 0.000000
  outer loop
    vertex -0.208321 -0.030578 0.000000
    vertex -0.209255 -0.011276 1.600000
    vertex -0.209255 -0.011276 0.000000
  endloop
endfacet
facet normal -0.030884 0.001494 0.000000
  outer loop
    vertex -0.209255 -0.011276 1.600000
    vertex -0.208321 0.008027 1.600000
    vertex -0.209255 -0.011276 0.000000
  endloop
endfacet
facet normal -0.030884 0.001494 0.000000
  outer loop
    vertex -0.209255 -0.011276 0.000000
    vertex -0.208321 0.008027 1.600000
    vertex -0.208321 0.008027 0.000000
  endloop
endfacet
facet normal -0.030596 0.004467 0.000000
  outer loop
    vertex -0.208321 0.008027 1.600000
    vertex -0.205529 0.027150 1.600000
    vertex -0.208321 0.008027 0.000000
  endloop
endfacet
facet normal -0.030596 0.004467 0.000000
  outer loop
    vertex -0.208321 0.008027 0.000000
    vertex -0.205529 0.027150 1.600000
    vertex -0.205529 0.027150 0.000000
  endloop
endfacet
facet normal -0.030022 0.007400 0.000000
  outer loop
    vertex -0.205529 0.027150 1.600000
    vertex -0.200904 0.045913 1.600000
    vertex -0.205529 0.027150 0.000000
  endloop
endfacet
facet normal -0.030022 0.007400 0.000000
  outer loop
    vertex -0.205529 0.027150 0.000000
    vertex -0.200904 0.045913 1.600000
    vertex -0.200904 0.045913 0.000000
  endloop
endfacet
facet normal -0.029168 0.010262 0.000000
  outer loop
    vertex -0.200904 0.045913 1.600000
    vertex -0.194490 0.064143 1.600000
    vertex -0.200904 0.045913 0.000000
  endloop
endfacet
facet normal -0.029168 0.010262 0.000000
  outer loop
    vertex -0.200904 0.045913 0.000000
    vertex -0.194490 0.064143 1.600000
    vertex -0.194490 0.064143 0.000000
  endloop
endfacet
facet normal -0.028041 0.013030 0.000000
  outer loop
    vertex -0.194490 0.064143 1.600000
    vertex -0.186346 0.081669 1.600000
    vertex -0.194490 0.064143 0.000000
  endloop
endfacet
facet normal -0.028041 0.013030 0.000000
  outer loop
    vertex -0.194490 0.064143 0.000000
    vertex -0.186346 0.081669 1.600000
    vertex -0.186346 0.081669 0.000000
  endloop
endfacet
facet normal -0.026653 0.015675 0.000000
  outer loop
    vertex -0.186346 0.081669 1.600000
    vertex -0.176549 0.098327 1.600000
    vertex -0.186346 0.081669 0.000000
  endloop
endfacet
facet normal -0.026653 0.015675 0.000000
  outer loop
    vertex -0.186346 0.081669 0.000000
    vertex -0.176549 0.098327 1.600000
    vertex -0.176549 0.098327 0.000000
  endloop
endfacet
facet normal -0.025015 0.018174 0.000000
  outer loop
    vertex -0.176549 0.098327 1.600000
    vertex -0.165190 0.113961 1.600000
    vertex -0.176549 0.098327 0.000000
  endloop
endfacet
facet normal -0.025015 0.018174 0.000000
  outer loop
    vertex -0.176549 0.098327 0.000000
    vertex -0.165190 0.113961 1.600000
    vertex -0.165190 0.113961 0.000000
  endloop
endfacet
facet normal -0.023146 0.020504 0.000000
  outer loop
    vertex -0.165190 0.113961 1.600000
    vertex -0.152375 0.128427 1.600000
    vertex -0.165190 0.113961 0.000000
  endloop
endfacet
facet normal -0.023146 0.020504 0.000000
  outer loop
    vertex -0.165190 0.113961 0.000000
    vertex -0.152375 0.128427 1.600000
    vertex -0.152375 0.128427 0.000000
  endloop
endfacet
facet normal -0.021056 0.022642 0.000000
  outer loop
    vertex -0.152375 0.128427 1.600000
    vertex -0.138224 0.141587 1.600000
    vertex -0.152375 0.128427 0.000000
  endloop
endfacet
facet normal -0.021056 0.022642 0.000000
  outer loop
    vertex -0.152375 0.128427 0.000000
    vertex -0.138224 0.141587 1.600000
    vertex -0.138224 0.141587 0.000000
  endloop
endfacet
facet normal -0.018774 0.024570 0.000000
  outer loop
    vertex -0.138224 0.141587 1.600000
    vertex -0.122868 0.153321 1.600000
    vertex -0.138224 0.141587 0.000000
  endloop
endfacet
facet normal -0.018774 0.024570 0.000000
  outer loop
    vertex -0.138224 0.141587 0.000000
    vertex -0.122868 0.153321 1.600000
    vertex -0.122868 0.153321 0.000000
  endloop
endfacet
facet normal -0.016315 0.026266 0.000000
  outer loop
    vertex -0.122868 0.153321 1.600000
    vertex -0.106452 0.163518 1.600000
    vertex -0.122868 0.153321 0.000000
  endloop
endfacet
facet normal -0.016315 0.026266 0.000000
  outer loop
    vertex -0.122868 0.153321 0.000000
    vertex -0.106452 0.163518 1.600000
    vertex -0.106452 0.163518 0.000000
  endloop
endfacet
facet normal -0.013704 0.027718 0.000000
  outer loop
    vertex -0.106452 0.163518 1.600000
    vertex -0.089128 0.172083 1.600000
    vertex -0.106452 0.163518 0.000000
  endloop
endfacet
facet normal -0.013704 0.027718 0.000000
  outer loop
    vertex -0.106452 0.163518 0.000000
    vertex -0.089128 0.172083 1.600000
    vertex -0.089128 0.172083 0.000000
  endloop
endfacet
facet normal -0.010965 0.028911 0.000000
  outer loop
    vertex -0.089128 0.172083 1.600000
    vertex -0.071058 0.178936 1.600000
    vertex -0.089128 0.172083 0.000000
  endloop
endfacet
facet normal -0.010965 0.028911 0.000000
  outer loop
    vertex -0.089128 0.172083 0.000000
    vertex -0.071058 0.178936 1.600000
    vertex -0.071058 0.178936 0.000000
  endloop
endfacet
facet normal -0.008123 0.029834 0.000000
  outer loop
    vertex -0.071058 0.178936 1.600000
    vertex -0.052412 0.184013 1.600000
    vertex -0.071058 0.178936 0.000000
  endloop
endfacet
facet normal -0.008123 0.029834 0.000000
  outer loop
    vertex -0.071058 0.178936 0.000000
    vertex -0.052412 0.184013 1.600000
    vertex -0.052412 0.184013 0.000000
  endloop
endfacet
facet normal -0.005205 0.030479 0.000000
  outer loop
    vertex -0.052412 0.184013 1.600000
    vertex -0.033363 0.187266 1.600000
    vertex -0.052412 0.184013 0.000000
  endloop
endfacet
facet normal -0.005205 0.030479 0.000000
  outer loop
    vertex -0.052412 0.184013 0.000000
    vertex -0.033363 0.187266 1.600000
    vertex -0.033363 0.187266 0.000000
  endloop
endfacet
facet normal -0.002240 0.030839 0.000000
  outer loop
    vertex -0.033363 0.187266 1.600000
    vertex -0.014088 0.188666 1.600000
    vertex -0.033363 0.187266 0.000000
  endloop
endfacet
facet normal -0.002240 0.030839 0.000000
  outer loop
    vertex -0.033363 0.187266 0.000000
    vertex -0.014088 0.188666 1.600000
    vertex -0.014088 0.188666 0.000000
  endloop
endfacet
facet normal 0.000747 0.030912 0.000000
  outer loop
    vertex -0.014088 0.188666 1.600000
    vertex 0.005232 0.188199 1.600000
    vertex -0.014088 0.188666 0.000000
  endloop
endfacet
facet normal 0.000747 0.030912 0.000000
  outer loop
    vertex -0.014088 0.188666 0.000000
    vertex 0.005232 0.188199 1.600000
    vertex 0.005232 0.188199 0.000000
  endloop
endfacet
facet normal 0.003726 0.030695 0.000000
  outer loop
    vertex 0.005232 0.188199 1.600000
    vertex 0.024416 0.185870 1.600000
    vertex 0.005232 0.188199 0.000000
  endloop
endfacet
facet normal 0.003726 0.030695 0.000000
  outer loop
    vertex 0.005232 0.188199 0.000000
    vertex 0.024416 0.185870 1.600000
    vertex 0.024416 0.185870 0.000000
  endloop
endfacet
facet normal 0.006674 0.030192 0.000000
  outer loop
    vertex 0.024416 0.185870 1.600000
    vertex 0.043286 0.181699 1.600000
    vertex 0.024416 0.185870 0.000000
  endloop
endfacet
facet normal 0.006674 0.030192 0.000000
  outer loop
    vertex 0.024416 0.185870 0.000000
    vertex 0.043286 0.181699 1.600000
    vertex 0.043286 0.181699 0.000000
  endloop
endfacet
facet normal 0.009554 0.029407 0.000000
  outer loop
    vertex 0.043286 0.181699 1.600000
    vertex 0.061666 0.175728 1.600000
    vertex 0.043286 0.181699 0.000000
  endloop
endfacet
facet normal 0.009554 0.029407 0.000000
  outer loop
    vertex 0.043286 0.181699 0.000000
    vertex 0.061666 0.175728 1.600000
    vertex 0.061666 0.175728 0.000000
  endloop
endfacet
facet normal 0.012349 0.028348 0.000000
  outer loop
    vertex 0.061666 0.175728 1.600000
    vertex 0.079383 0.168010 1.600000
    vertex 0.061666 0.175728 0.000000
  endloop
endfacet
facet normal 0.012349 0.028348 0.000000
  outer loop
    vertex 0.061666 0.175728 0.000000
    vertex 0.079383 0.168010 1.600000
    vertex 0.079383 0.168010 0.000000
  endloop
endfacet
facet normal 0.015027 0.027024 0.000000
  outer loop
    vertex 0.079383 0.168010 1.600000
    vertex 0.096273 0.158618 1.600000
    vertex 0.079383 0.168010 0.000000
  endloop
endfacet
facet normal 0.015027 0.027024 0.000000
  outer loop
    vertex 0.079383 0.168010 0.000000
    vertex 0.096273 0.158618 1.600000
    vertex 0.096273 0.158618 0.000000
  endloop
endfacet
facet normal 0.017565 0.025447 0.000000
  outer loop
    vertex 0.096273 0.158618 1.600000
    vertex 0.112177 0.147640 1.600000
    vertex 0.096273 0.158618 0.000000
  endloop
endfacet
facet normal 0.017565 0.025447 0.000000
  outer loop
    vertex 0.096273 0.158618 0.000000
    vertex 0.112177 0.147640 1.600000
    vertex 0.112177 0.147640 0.000000
  endloop
endfacet
facet normal 0.019939 0.023634 0.000000
  outer loop
    vertex 0.112177 0.147640 1.600000
    vertex 0.126948 0.135178 1.600000
    vertex 0.112177 0.147640 0.000000
  endloop
endfacet
facet normal 0.019939 0.023634 0.000000
  outer loop
    vertex 0.112177 0.147640 0.000000
    vertex 0.126948 0.135178 1.600000
    vertex 0.126948 0.135178 0.000000
  endloop
endfacet
facet normal 0.022126 0.021598 0.000000
  outer loop
    vertex 0.126948 0.135178 1.600000
    vertex 0.140447 0.121349 1.600000
    vertex 0.126948 0.135178 0.000000
  endloop
endfacet
facet normal 0.022126 0.021598 0.000000
  outer loop
    vertex 0.126948 0.135178 0.000000
    vertex 0.140447 0.121349 1.600000
    vertex 0.140447 0.121349 0.000000
  endloop
endfacet
facet normal 0.024109 0.019362 0.000000
  outer loop
    vertex 0.140447 0.121349 1.600000
    vertex 0.152548 0.106281 1.600000
    vertex 0.140447 0.121349 0.000000
  endloop
endfacet
facet normal 0.024109 0.019362 0.000000
  outer loop
    vertex 0.140447 0.121349 0.000000
    vertex 0.152548 0.106281 1.600000
    vertex 0.152548 0.106281 0.000000
  endloop
endfacet
facet normal 0.025864 0.016946 0.000000
  outer loop
    vertex 0.152548 0.106281 1.600000
    vertex 0.163139 0.090116 1.600000
    vertex 0.152548 0.106281 0.000000
  endloop
endfacet
facet normal 0.025864 0.016946 0.000000
  outer loop
    vertex 0.152548 0.106281 0.000000
    vertex 0.163139 0.090116 1.600000
    vertex 0.163139 0.090116 0.000000
  endloop
endfacet
facet normal 0.027379 0.014370 0.000000
  outer loop
    vertex 0.163139 0.090116 1.600000
    vertex 0.172120 0.073005 1.600000
    vertex 0.163139 0.090116 0.000000
  endloop
endfacet
facet normal 0.027379 0.014370 0.000000
  outer loop
    vertex 0.163139 0.090116 0.000000
    vertex 0.172120 0.073005 1.600000
    vertex 0.172120 0.073005 0.000000
  endloop
endfacet
facet normal 0.028638 0.011659 0.000000
  outer loop
    vertex 0.172120 0.073005 1.600000
    vertex 0.179407 0.055106 1.600000
    vertex 0.172120 0.073005 0.000000
  endloop
endfacet
facet normal 0.028638 0.011659 0.000000
  outer loop
    vertex 0.172120 0.073005 0.000000
    vertex 0.179407 0.055106 1.600000
    vertex 0.179407 0.055106 0.000000
  endloop
endfacet
facet normal 0.029629 0.008842 0.000000
  outer loop
    vertex 0.179407 0.055106 1.600000
    vertex 0.184933 0.036587 1.600000
    vertex 0.179407 0.055106 0.000000
  endloop
endfacet
facet normal 0.029629 0.008842 0.000000
  outer loop
    vertex 0.179407 0.055106 0.000000
    vertex 0.184933 0.036587 1.600000
    vertex 0.184933 0.036587 0.000000
  endloop
endfacet
facet normal 0.030344 0.005941 0.000000
  outer loop
    vertex 0.184933 0.036587 1.600000
    vertex 0.188646 0.017622 1.600000
    vertex 0.184933 0.036587 0.000000
  endloop
endfacet
facet normal 0.030344 0.005941 0.000000
  outer loop
    vertex 0.184933 0.036587 0.000000
    vertex 0.188646 0.017622 1.600000
    vertex 0.188646 0.017622 0.000000
  endloop
endfacet
facet normal 0.030776 0.002984 0.000000
  outer loop
    vertex 0.188646 0.017622 1.600000
    vertex 0.190511 -0.001613 1.600000
    vertex 0.188646 0.017622 0.000000
  endloop
endfacet
facet normal 0.030776 0.002984 0.000000
  outer loop
    vertex 0.188646 0.017622 0.000000
    vertex 0.190511 -0.001613 1.600000
    vertex 0.190511 -0.001613 0.000000
  endloop
endfacet
facet normal 0.015460 0.000374 0.000000
  outer loop
    vertex 0.190511 -0.001613 1.600000
    vertex 0.190745 -0.011276 0.000000
    vertex 0.190511 -0.001613 0.000000
  endloop
endfacet
endsolid Person1